{"glyphs":{"0":{"ha":927,"x_min":72,"x_max":856,"o":"m 210 357 l 428 139 l 500 139 l 718 357 l 718 686 l 500 904 l 428 904 l 210 686 l 210 357 m 72 744 l 371 1042 l 557 1042 l 856 744 l 856 299 l 557 0 l 371 0 l 72 299 l 72 744 z "},"1":{"ha":927,"x_min":72,"x_max":855,"o":"m 855 139 l 855 0 l 72 0 l 72 139 l 394 139 l 394 904 l 72 904 l 72 1042 l 532 1042 l 532 139 l 855 139 z "},"2":{"ha":927,"x_min":72,"x_max":856,"o":"m 210 633 l 72 633 l 72 814 l 235 1042 l 693 1042 l 856 814 l 856 616 l 703 402 l 210 168 l 210 139 l 856 139 l 856 0 l 72 0 l 72 255 l 612 511 l 718 659 l 718 770 l 622 904 l 306 904 l 210 770 l 210 633 z "},"3":{"ha":927,"x_min":96,"x_max":869,"o":"m 208 294 l 319 139 l 635 139 l 731 272 l 731 319 l 635 452 l 296 452 l 296 591 l 635 591 l 731 724 l 731 770 l 635 904 l 319 904 l 214 757 l 101 838 l 248 1042 l 707 1042 l 869 814 l 869 680 l 756 522 l 869 362 l 869 229 l 707 0 l 248 0 l 96 214 l 208 294 z "},"4":{"ha":927,"x_min":109,"x_max":886,"o":"m 489 462 l 489 789 l 279 462 l 489 462 m 109 425 l 521 1042 l 627 1042 l 627 462 l 886 462 l 886 323 l 627 323 l 627 139 l 886 139 l 886 0 l 224 0 l 224 139 l 489 139 l 489 323 l 109 323 l 109 425 z "},"5":{"ha":927,"x_min":58,"x_max":869,"o":"m 747 1042 l 747 904 l 289 904 l 289 655 l 707 655 l 869 427 l 869 229 l 707 0 l 248 0 l 58 267 l 171 347 l 319 139 l 635 139 l 731 272 l 731 383 l 635 517 l 150 517 l 150 1042 l 747 1042 z "},"6":{"ha":927,"x_min":72,"x_max":856,"o":"m 306 517 l 210 383 l 210 272 l 306 139 l 622 139 l 718 272 l 718 383 l 622 517 l 306 517 m 681 1042 l 405 655 l 693 655 l 856 427 l 856 229 l 693 0 l 235 0 l 72 229 l 72 427 l 511 1042 l 681 1042 z "},"7":{"ha":927,"x_min":45,"x_max":856,"o":"m 322 0 l 718 656 l 718 770 l 622 904 l 306 904 l 157 696 l 45 777 l 235 1042 l 693 1042 l 856 814 l 856 618 l 484 0 l 322 0 z "},"8":{"ha":927,"x_min":72,"x_max":856,"o":"m 622 591 l 718 724 l 718 770 l 622 904 l 306 904 l 210 770 l 210 724 l 306 591 l 622 591 m 72 680 l 72 814 l 235 1042 l 693 1042 l 856 814 l 856 680 l 743 522 l 856 362 l 856 229 l 693 0 l 235 0 l 72 229 l 72 362 l 185 522 l 72 680 m 306 452 l 210 319 l 210 272 l 306 139 l 622 139 l 718 272 l 718 319 l 622 452 l 306 452 z "},"9":{"ha":927,"x_min":72,"x_max":856,"o":"m 718 770 l 622 904 l 306 904 l 210 770 l 210 659 l 306 526 l 622 526 l 718 659 l 718 770 m 247 0 l 523 387 l 235 387 l 72 616 l 72 814 l 235 1042 l 693 1042 l 856 814 l 856 616 l 416 0 l 247 0 z "},"\u0000":{"ha":163,"x_min":0,"x_max":0,"o":""}," ":{"ha":927,"x_min":0,"x_max":0,"o":""},"!":{"ha":927,"x_min":395,"x_max":533,"o":"m 533 258 l 395 258 l 395 1042 l 533 1042 l 533 258 m 395 0 l 395 138 l 533 138 l 533 0 l 395 0 z "},"\"":{"ha":927,"x_min":269,"x_max":659,"o":"m 269 1042 l 408 1042 l 408 684 l 269 684 l 269 1042 m 519 1042 l 659 1042 l 659 684 l 519 684 l 519 1042 z "},"#":{"ha":927,"x_min":72,"x_max":856,"o":"m 72 296 l 72 435 l 266 435 l 266 581 l 72 581 l 72 720 l 266 720 l 266 1042 l 404 1042 l 404 720 l 524 720 l 524 1042 l 663 1042 l 663 720 l 856 720 l 856 581 l 663 581 l 663 435 l 856 435 l 856 296 l 663 296 l 663 0 l 524 0 l 524 296 l 404 296 l 404 0 l 266 0 l 266 296 l 72 296 m 404 435 l 524 435 l 524 581 l 404 581 l 404 435 z "},"$":{"ha":927,"x_min":72,"x_max":856,"o":"m 298 1236 l 437 1236 l 437 1042 l 492 1042 l 492 1236 l 630 1236 l 630 1042 l 693 1042 l 856 814 l 856 633 l 718 633 l 718 770 l 630 892 l 630 591 l 693 591 l 856 362 l 856 229 l 693 0 l 630 0 l 630 -193 l 492 -193 l 492 0 l 437 0 l 437 -193 l 298 -193 l 298 0 l 235 0 l 72 229 l 72 410 l 210 410 l 210 272 l 298 150 l 298 452 l 235 452 l 72 680 l 72 814 l 235 1042 l 298 1042 l 298 1236 m 437 904 l 437 591 l 492 591 l 492 904 l 437 904 m 437 452 l 437 139 l 492 139 l 492 452 l 437 452 m 298 892 l 210 770 l 210 724 l 298 602 l 298 892 m 630 150 l 718 272 l 718 319 l 630 441 l 630 150 z "},"%":{"ha":927,"x_min":75,"x_max":852,"o":"m 602 200 l 675 127 l 748 200 l 748 328 l 675 400 l 602 328 l 602 200 m 498 370 l 643 515 l 708 515 l 852 370 l 852 157 l 708 13 l 643 13 l 498 157 l 498 370 m 179 706 l 252 633 l 325 706 l 325 833 l 252 906 l 179 833 l 179 706 m 75 876 l 220 1021 l 285 1021 l 429 876 l 429 663 l 285 519 l 220 519 l 75 663 l 75 876 m 635 1060 l 761 1002 q 526 488 683 831 q 292 -27 370 144 l 166 31 l 606 997 l 635 1060 z "},"&":{"ha":927,"x_min":58,"x_max":870,"o":"m 870 60 l 762 -28 l 707 40 l 679 0 l 220 0 l 58 229 l 58 362 l 220 591 l 258 591 l 186 677 l 186 814 l 350 1042 l 550 1042 l 713 814 l 713 680 l 550 452 l 549 452 l 700 268 l 703 272 l 703 410 l 842 410 l 842 229 l 791 157 l 826 113 l 870 60 m 371 452 l 292 452 l 196 319 l 196 272 l 292 139 l 608 139 l 616 151 l 371 452 m 326 726 l 436 591 l 479 591 l 574 724 l 574 770 l 479 904 l 420 904 l 326 770 l 326 726 z "},"'":{"ha":927,"x_min":394,"x_max":533,"o":"m 394 1042 l 533 1042 l 533 684 l 394 684 l 394 1042 z "},"(":{"ha":927,"x_min":72,"x_max":856,"o":"m 856 1042 l 856 904 l 493 904 l 210 622 l 210 421 l 493 139 l 856 139 l 856 0 l 435 0 l 72 363 l 72 679 l 435 1042 l 856 1042 z "},")":{"ha":927,"x_min":72,"x_max":856,"o":"m 72 904 l 72 1042 l 493 1042 l 856 679 l 856 363 l 493 0 l 72 0 l 72 139 l 435 139 l 718 421 l 718 622 l 435 904 l 72 904 z "},"*":{"ha":927,"x_min":130,"x_max":796,"o":"m 394 1042 l 533 1042 l 533 810 l 753 882 l 796 751 l 575 679 l 712 490 l 600 409 l 463 597 l 326 410 l 214 491 l 351 679 l 130 751 l 173 882 l 394 810 l 394 1042 z "},"+":{"ha":927,"x_min":72,"x_max":856,"o":"m 72 450 l 72 588 l 395 588 l 395 911 l 533 911 l 533 588 l 856 588 l 856 450 l 533 450 l 533 127 l 395 127 l 395 450 l 72 450 z "},",":{"ha":927,"x_min":123,"x_max":262,"o":"m 189 0 l 123 0 l 123 138 l 262 138 l 262 0 l 201 -165 l 128 -165 l 189 0 z "},"-":{"ha":927,"x_min":208,"x_max":720,"o":"m 208 353 l 208 491 l 720 491 l 720 353 l 208 353 z "},".":{"ha":1049,"x_min":68,"x_max":973,"o":"m 68 -191 l 68 968 l 973 968 l 973 -191 l 68 -191 m 92 -164 l 949 -164 l 949 948 l 92 948 l 92 -164 m 492 319 l 494 319 l 501 319 l 501 307 q 503 221 503 259 l 498 220 l 494 220 q 492 313 492 268 l 492 315 l 492 319 m 830 319 l 831 319 l 840 319 q 840 310 840 313 q 842 221 840 273 l 834 220 l 831 220 q 829 307 830 259 q 830 319 830 315 m 536 316 l 538 316 q 543 308 538 315 q 541 288 541 296 l 541 275 q 551 236 541 245 l 551 236 q 575 315 566 236 l 576 315 q 585 313 585 313 q 581 254 581 273 q 589 233 581 233 q 591 220 591 222 l 585 220 q 572 241 576 220 l 571 241 q 553 222 564 222 l 549 222 q 531 264 536 222 q 530 279 530 267 l 530 286 q 536 316 530 303 m 742 316 l 746 316 q 765 297 754 316 q 773 267 773 282 l 773 261 q 746 222 773 236 q 736 220 741 220 l 732 220 q 708 249 711 220 l 708 255 q 735 315 708 289 q 742 316 741 316 m 169 313 l 175 313 q 194 286 194 310 q 172 253 194 263 q 153 248 163 250 l 153 223 l 153 223 q 143 225 149 223 l 143 248 l 140 248 l 136 249 q 140 262 136 256 l 143 262 l 143 262 q 139 290 143 290 q 135 297 135 294 q 169 313 147 313 m 718 255 l 718 250 q 735 233 718 235 q 760 252 750 233 q 764 264 764 257 l 764 266 q 746 302 764 284 q 744 303 744 302 q 720 269 732 303 q 718 255 718 262 m 152 295 q 153 263 153 271 q 153 262 153 263 q 178 273 173 266 q 184 286 184 280 q 174 300 184 298 l 170 300 q 152 295 152 298 m 274 297 q 293 264 287 297 q 283 261 292 264 q 274 283 279 283 q 260 233 262 277 q 261 222 261 223 q 251 221 254 221 q 242 280 242 268 q 252 281 250 281 l 252 281 q 254 268 252 278 l 255 268 q 274 297 262 297 m 364 293 q 387 271 378 293 q 388 260 388 265 l 388 258 q 364 222 388 233 q 358 221 361 221 q 340 247 340 224 q 357 291 340 281 q 364 293 358 292 m 416 293 q 441 233 429 293 q 441 228 441 233 q 433 223 436 223 q 418 277 423 265 q 406 230 412 269 q 402 223 405 230 l 397 223 q 391 262 393 223 q 390 277 390 271 q 399 279 395 279 q 401 265 401 267 l 402 265 q 416 293 407 293 m 804 293 q 827 228 814 293 q 819 223 821 223 q 802 277 808 268 q 789 227 798 269 q 787 223 787 223 l 783 223 q 776 277 778 223 q 786 279 780 279 q 787 264 787 266 l 787 264 q 804 293 792 293 m 320 292 q 332 280 332 288 l 332 279 q 326 274 332 278 l 325 274 q 316 279 322 279 q 305 271 307 279 q 325 267 305 268 q 338 244 338 260 q 325 221 338 227 l 319 220 l 316 220 q 293 235 300 220 l 293 236 q 299 243 294 238 l 300 243 q 319 233 308 233 q 328 244 328 236 q 314 254 326 254 q 295 269 295 254 l 295 271 q 320 292 295 292 m 618 292 q 632 279 627 292 l 632 279 q 623 274 625 274 q 615 279 623 278 q 604 272 607 279 l 604 271 q 623 267 604 268 q 636 243 636 261 q 620 220 636 225 l 614 220 q 591 235 599 220 l 591 236 q 597 243 596 243 l 598 243 q 616 233 606 233 q 626 244 626 236 q 615 254 626 252 q 595 262 598 254 q 593 271 593 269 q 618 292 593 292 m 847 291 l 847 291 q 857 290 856 290 q 856 272 856 277 l 856 266 q 865 242 857 242 l 865 242 q 878 288 878 251 l 878 288 l 888 288 l 888 286 q 892 226 892 233 q 872 188 892 195 q 869 188 871 188 l 865 188 q 850 201 853 188 q 849 208 849 204 l 849 208 q 851 218 849 218 l 852 218 q 860 214 858 214 l 859 208 q 865 201 859 202 l 867 201 q 882 230 882 201 q 882 244 882 233 l 881 244 q 863 228 876 228 l 863 228 q 846 260 850 228 l 846 271 q 847 291 846 278 m 224 290 q 240 275 240 288 l 240 271 q 214 247 240 258 l 207 247 q 218 236 207 239 q 233 248 226 236 l 235 248 q 241 238 241 240 q 220 223 229 223 l 216 223 q 195 254 198 223 q 217 290 195 281 l 224 290 m 462 290 l 469 290 q 488 260 488 284 q 487 236 487 245 q 488 225 487 236 q 479 220 482 220 l 479 220 l 477 227 q 462 222 469 222 l 457 222 q 442 236 442 224 l 442 241 q 464 265 442 262 q 477 261 471 264 l 477 262 q 466 279 475 279 q 454 272 460 279 l 452 272 q 446 279 450 273 l 446 281 q 462 290 454 290 m 667 290 q 683 275 683 288 q 654 247 683 255 l 650 247 l 650 245 q 661 236 654 236 q 676 248 667 236 l 677 248 q 683 240 677 248 q 669 225 683 234 q 663 223 666 223 l 658 223 q 638 253 642 223 q 659 290 638 280 l 667 290 m 350 248 q 358 235 351 235 l 360 235 q 378 259 376 240 l 378 261 q 364 279 374 279 l 363 279 q 351 257 354 279 q 350 248 350 252 m 207 261 q 229 273 220 261 l 229 275 q 223 276 224 276 q 207 263 212 276 l 207 261 m 650 261 l 652 261 q 673 274 663 261 q 667 276 669 276 l 665 276 q 650 262 654 276 l 650 261 m 452 240 l 452 238 q 459 234 452 236 q 476 245 471 234 q 463 250 471 250 q 452 240 452 248 m 419 172 q 429 149 428 172 l 429 147 l 425 146 l 424 146 q 418 161 422 161 q 413 148 414 161 q 414 145 414 146 q 415 119 414 138 q 421 121 418 121 l 423 121 l 423 111 l 416 109 q 419 62 419 70 l 412 62 q 409 106 409 98 l 408 106 q 401 104 405 104 l 401 116 q 408 117 406 116 q 406 153 406 132 q 418 172 408 172 l 419 172 m 553 172 q 564 147 562 172 l 559 146 l 557 146 l 557 147 q 553 161 557 157 q 547 151 547 157 q 549 119 547 145 q 549 119 549 119 q 556 121 553 121 l 557 121 l 557 115 l 557 111 q 549 109 557 111 l 551 106 q 553 62 551 98 l 546 62 q 543 106 546 66 q 535 104 537 104 l 535 116 l 543 117 q 541 152 541 148 q 553 172 541 172 m 481 161 l 484 161 l 488 161 l 488 155 q 490 65 488 113 l 482 65 q 481 134 481 109 l 481 161 m 498 161 l 499 161 l 505 161 l 505 140 q 507 65 505 119 l 499 65 q 497 157 497 110 l 497 159 q 498 161 497 161 m 359 159 q 366 157 364 157 q 364 129 364 138 l 366 129 l 374 130 l 374 119 q 364 117 373 119 l 367 67 l 366 66 l 360 66 q 357 117 358 85 l 348 117 l 348 127 l 355 128 l 357 128 l 357 140 q 359 159 357 159 m 674 159 q 682 157 676 159 q 680 138 680 149 l 680 129 l 682 129 l 690 130 l 690 119 l 688 119 l 680 117 l 684 67 l 680 66 l 676 66 q 674 117 674 108 l 664 117 l 665 122 l 665 127 l 672 128 l 673 128 l 673 129 q 674 159 673 143 m 773 159 q 781 157 775 159 q 780 134 780 145 l 780 129 l 781 129 l 789 130 l 789 125 l 789 119 q 780 117 789 119 l 780 113 q 783 67 780 103 l 781 66 l 775 66 l 772 117 l 764 117 l 764 127 l 771 128 l 772 128 l 773 159 m 274 157 l 281 157 q 296 141 290 157 q 292 135 292 137 l 290 135 q 276 145 284 145 q 252 127 264 145 q 246 104 246 115 l 246 101 q 262 77 246 81 q 268 77 264 77 q 289 90 289 79 l 289 97 q 281 99 286 99 l 274 99 l 274 111 q 296 104 293 111 q 298 98 298 100 q 296 79 296 81 q 299 61 296 71 q 294 58 298 61 l 293 58 q 289 73 290 58 q 269 64 285 67 l 268 64 q 239 99 242 64 l 239 102 q 269 155 239 141 l 274 157 m 587 135 q 610 109 603 135 l 610 100 q 587 66 610 77 l 583 65 q 566 79 572 65 q 565 90 565 86 l 565 93 q 578 132 565 121 q 587 135 583 135 m 640 135 q 663 71 650 135 l 662 71 q 656 68 659 68 q 640 122 646 114 q 624 68 635 117 l 623 68 l 620 68 q 614 119 616 68 l 619 121 l 621 121 q 623 98 623 110 l 623 98 q 640 135 629 135 m 330 132 q 344 119 344 130 q 345 117 345 119 q 321 93 345 102 q 311 91 317 91 l 311 90 q 322 79 311 83 l 323 79 q 338 90 330 79 l 340 90 q 345 83 340 88 l 345 83 q 325 68 335 68 l 321 68 q 302 90 308 68 l 302 100 q 320 131 302 122 q 330 132 323 132 m 734 132 l 742 132 q 758 113 753 132 q 760 101 760 102 q 758 83 760 97 q 760 68 760 81 l 755 65 l 753 65 l 751 73 q 734 66 745 66 l 732 66 q 718 79 718 68 l 718 85 q 738 106 720 106 q 752 101 746 106 l 752 103 q 740 123 752 120 l 738 123 q 726 117 734 123 l 726 117 q 722 122 725 117 l 722 123 q 734 132 728 132 m 430 131 q 437 129 431 131 q 447 79 437 79 q 466 123 460 87 q 467 131 467 127 l 467 131 q 474 129 469 131 q 472 98 472 113 l 472 90 q 475 77 472 84 q 472 70 472 73 l 471 70 q 465 87 466 73 l 464 87 q 451 68 461 77 l 445 68 q 431 119 431 68 l 431 125 l 430 131 m 572 93 q 582 77 573 77 l 583 77 q 601 94 593 77 q 603 102 603 100 q 588 123 599 123 l 585 123 q 572 93 575 123 m 310 102 q 336 117 326 102 q 329 121 335 121 l 327 121 q 310 102 314 121 m 724 83 q 732 77 726 77 l 736 77 q 751 90 745 77 q 739 95 745 95 l 738 95 q 724 83 724 93 m 344 31 q 355 28 345 31 q 352 -35 353 2 q 359 -81 352 -58 q 351 -88 351 -88 l 350 -88 q 346 -79 348 -88 l 345 -79 q 330 -90 345 -85 q 298 -62 308 -90 q 296 -43 296 -54 q 319 -3 296 -10 l 322 -3 q 342 -14 332 -3 l 342 -14 q 344 31 342 -8 m 214 26 l 224 23 q 223 -1 223 7 l 223 -11 q 233 -9 232 -9 q 235 -25 235 -22 l 233 -25 q 223 -26 227 -26 q 227 -87 225 -68 q 215 -89 218 -89 l 215 -88 q 212 -28 212 -47 l 210 -27 l 201 -27 l 201 -11 l 211 -11 l 211 -5 q 214 26 211 26 m 457 26 l 458 26 l 468 23 q 467 -7 467 4 l 467 -11 q 477 -9 476 -9 l 478 -18 l 478 -25 q 467 -26 467 -26 q 471 -87 467 -42 q 459 -89 462 -89 l 459 -88 q 456 -27 456 -37 l 444 -27 l 444 -11 l 455 -11 q 457 26 455 12 m 370 24 q 378 15 376 24 l 378 14 q 372 3 378 7 l 368 3 q 362 15 362 7 q 370 24 363 24 m 412 -3 q 439 -29 429 -3 q 441 -41 441 -37 l 441 -47 q 414 -87 441 -74 q 406 -89 412 -89 q 384 -61 387 -89 l 384 -52 q 404 -5 384 -17 q 412 -3 411 -3 m 543 -3 l 546 -3 q 553 -5 553 -3 l 553 -7 q 566 -3 559 -3 q 589 -33 583 -3 q 589 -43 589 -41 q 568 -86 587 -78 l 563 -87 l 556 -87 l 557 -92 q 557 -119 557 -96 l 546 -119 q 543 -3 543 -30 m 621 -3 q 647 -27 636 -3 q 650 -43 650 -36 q 624 -87 650 -73 q 614 -89 618 -89 q 593 -71 600 -89 q 592 -55 592 -62 q 612 -5 592 -18 q 621 -3 620 -3 m 758 -3 q 784 -27 774 -3 q 787 -40 787 -33 l 787 -45 q 760 -87 787 -75 q 751 -89 758 -89 q 730 -61 732 -89 l 730 -52 q 750 -5 730 -17 q 758 -3 757 -3 m 821 -3 q 840 -43 833 -3 l 840 -43 q 859 -3 846 -3 l 859 -3 q 886 -83 876 -3 l 885 -83 q 876 -87 878 -87 l 876 -87 q 859 -20 863 -20 q 847 -76 852 -35 q 840 -83 845 -83 q 833 -73 835 -83 q 820 -21 824 -21 q 809 -84 809 -60 q 798 -87 802 -87 l 798 -86 l 789 -16 q 801 -12 798 -12 q 804 -33 802 -17 l 805 -33 q 821 -3 811 -3 m 175 -4 q 191 -18 191 -7 l 191 -19 q 183 -25 191 -20 l 181 -25 q 172 -20 181 -20 l 172 -20 q 158 -26 163 -20 l 158 -29 q 179 -33 158 -33 q 197 -59 197 -41 l 197 -62 q 182 -88 197 -81 q 176 -90 179 -90 l 170 -90 q 143 -73 154 -90 q 151 -62 143 -70 l 153 -62 q 173 -75 158 -75 q 185 -61 185 -75 q 171 -49 185 -51 q 149 -41 153 -49 q 146 -33 146 -35 l 146 -27 q 175 -4 146 -4 m 484 -5 q 494 -7 492 -7 q 493 -31 493 -23 l 493 -35 q 501 -64 493 -57 l 505 -64 q 519 -16 519 -52 l 519 -9 l 531 -9 l 531 -9 q 536 -79 536 -70 l 536 -86 q 517 -127 536 -116 q 507 -130 511 -130 q 487 -116 492 -130 q 486 -110 486 -113 l 486 -104 q 488 -94 486 -94 l 498 -98 l 497 -104 l 497 -106 q 505 -113 497 -112 l 507 -113 q 524 -91 521 -113 q 525 -83 525 -88 l 525 -69 l 524 -60 l 524 -60 q 504 -81 517 -81 l 503 -81 q 482 -47 487 -81 q 481 -33 481 -41 l 481 -27 q 484 -5 481 -5 m 701 -5 l 706 -5 q 716 -12 710 -5 q 724 -24 724 -20 q 715 -33 716 -33 l 715 -33 q 703 -22 708 -22 l 702 -22 q 690 -41 694 -26 l 687 -56 q 696 -72 687 -71 l 699 -72 q 722 -61 706 -72 l 722 -61 q 726 -76 726 -75 q 694 -88 709 -88 q 675 -57 679 -88 q 688 -14 675 -34 q 701 -5 696 -5 m 364 -7 l 372 -7 l 376 -7 q 376 -13 376 -9 q 378 -87 376 -58 l 366 -87 l 366 -81 q 364 -7 364 -35 m 237 -7 q 249 -12 249 -11 l 249 -25 q 257 -71 249 -71 l 260 -71 q 277 -33 272 -58 q 281 -7 280 -26 l 282 -7 q 292 -12 292 -9 q 290 -52 290 -40 l 290 -58 q 294 -72 290 -65 q 287 -84 294 -76 l 287 -84 q 279 -67 279 -76 l 278 -67 q 259 -87 271 -87 l 257 -87 q 237 -24 237 -87 l 237 -7 m 308 -45 q 328 -73 308 -68 l 330 -73 q 340 -55 338 -73 l 340 -53 q 326 -20 340 -28 l 322 -20 l 321 -20 q 308 -43 309 -20 l 308 -45 m 395 -56 q 406 -73 395 -71 l 408 -73 q 428 -53 418 -73 q 429 -47 429 -50 l 429 -41 q 413 -20 425 -20 l 412 -20 q 395 -56 397 -20 m 553 -25 q 555 -71 553 -27 l 560 -71 q 578 -43 575 -71 q 566 -20 576 -20 l 566 -20 q 553 -25 559 -20 m 604 -56 l 604 -59 q 614 -73 604 -71 l 615 -73 q 635 -55 626 -73 q 638 -43 638 -50 q 619 -20 634 -20 q 604 -56 606 -20 m 741 -56 q 752 -73 741 -73 l 754 -73 q 774 -52 764 -73 q 775 -45 775 -48 l 775 -41 q 758 -20 770 -20 l 758 -20 q 741 -56 744 -20 m 663 -65 q 671 -75 669 -65 l 671 -78 q 663 -87 669 -87 q 655 -77 656 -87 q 663 -65 656 -65 m 486 928 l 486 764 l 309 764 q 239 738 273 764 l 239 745 q 486 928 339 928 m 543 928 l 549 928 q 739 827 639 928 q 777 764 777 781 l 543 764 l 543 928 m 290 707 l 486 707 l 486 643 q 435 656 463 656 l 290 656 q 277 669 277 656 l 277 694 q 290 707 279 707 m 543 707 l 802 707 l 808 643 l 808 631 q 720 429 808 505 l 606 429 q 543 492 543 437 l 543 707 m 220 656 l 227 656 q 321 599 227 607 l 441 599 q 486 555 486 599 l 486 485 q 416 429 486 429 l 309 429 q 220 618 220 510 l 220 656 m 511 410 l 517 410 q 644 372 559 372 l 644 365 q 517 340 571 340 l 511 340 q 385 365 457 340 l 385 372 q 511 410 474 372 z "},"/":{"ha":927,"x_min":111,"x_max":809,"o":"m 809 1042 l 260 0 l 111 0 l 660 1042 l 809 1042 z "},":":{"ha":927,"x_min":123,"x_max":262,"o":"m 262 138 l 262 0 l 123 0 l 123 138 l 262 138 m 262 785 l 262 646 l 123 646 l 123 785 l 262 785 z "},";":{"ha":927,"x_min":123,"x_max":262,"o":"m 189 0 l 123 0 l 123 138 l 262 138 l 262 0 l 201 -165 l 128 -165 l 189 0 m 262 785 l 262 646 l 123 646 l 123 785 l 262 785 z "},"<":{"ha":927,"x_min":88,"x_max":839,"o":"m 839 83 q 88 383 700 138 l 88 606 l 839 905 l 839 757 l 227 512 l 227 476 l 839 232 l 839 83 z "},"=":{"ha":927,"x_min":149,"x_max":778,"o":"m 149 224 l 149 361 l 778 361 l 778 224 l 149 224 m 149 563 l 149 700 l 778 700 l 778 563 l 149 563 z "},">":{"ha":927,"x_min":88,"x_max":839,"o":"m 88 232 l 701 476 l 701 512 l 88 757 l 88 905 l 839 606 l 839 383 q 88 83 227 138 l 88 232 z "},"?":{"ha":927,"x_min":72,"x_max":856,"o":"m 501 0 l 362 0 l 362 139 l 501 139 l 501 0 m 210 633 l 72 633 l 72 814 l 235 1042 l 693 1042 l 856 814 l 856 680 l 693 452 l 545 452 l 501 429 l 501 245 l 362 245 l 362 511 l 512 591 l 622 591 l 718 724 l 718 770 l 622 904 l 306 904 l 210 770 l 210 633 z "},"@":{"ha":927,"x_min":78,"x_max":849,"o":"m 528 886 l 631 886 l 631 304 l 724 396 l 724 840 l 625 938 l 281 938 l 182 840 l 182 203 l 281 104 l 625 104 l 776 254 l 849 181 l 668 0 l 237 0 l 78 159 l 78 882 l 237 1042 l 668 1042 l 827 882 l 827 353 l 668 193 l 528 193 l 528 281 l 472 226 l 399 226 l 239 385 l 239 661 l 399 821 l 472 821 l 528 766 l 528 886 m 528 618 l 435 711 l 343 618 l 343 429 l 435 336 l 528 429 l 528 618 z "},"A":{"ha":927,"x_min":72,"x_max":856,"o":"m 210 494 l 718 494 l 718 815 l 629 904 l 299 904 l 210 815 l 210 494 m 718 356 l 210 356 l 210 0 l 72 0 l 72 873 l 241 1042 l 686 1042 l 856 873 l 856 0 l 718 0 l 718 356 z "},"B":{"ha":927,"x_min":72,"x_max":856,"o":"m 72 1042 l 686 1042 l 856 873 l 856 622 l 755 522 l 856 421 l 856 170 l 686 0 l 72 0 l 72 1042 m 629 591 l 718 679 l 718 815 l 629 904 l 210 904 l 210 591 l 629 591 m 210 139 l 629 139 l 718 227 l 718 363 l 629 452 l 210 452 l 210 139 z "},"C":{"ha":927,"x_min":72,"x_max":885,"o":"m 885 199 l 686 0 l 241 0 l 72 170 l 72 873 l 241 1042 l 686 1042 l 885 844 l 787 746 l 629 904 l 299 904 l 210 815 l 210 227 l 299 139 l 629 139 l 787 296 l 885 199 z "},"D":{"ha":927,"x_min":72,"x_max":856,"o":"m 210 904 l 210 139 l 564 139 l 718 292 l 718 751 l 564 904 l 210 904 m 72 1042 l 622 1042 l 856 808 l 856 235 l 622 0 l 72 0 l 72 1042 z "},"E":{"ha":927,"x_min":71,"x_max":884,"o":"m 209 452 l 209 139 l 627 139 l 785 296 l 884 199 l 685 0 l 71 0 l 71 1042 l 685 1042 l 884 844 l 785 746 l 627 904 l 209 904 l 209 591 l 726 591 l 726 452 l 209 452 z "},"F":{"ha":927,"x_min":71,"x_max":884,"o":"m 209 452 l 209 0 l 71 0 l 71 1042 l 685 1042 l 884 844 l 785 746 l 627 904 l 209 904 l 209 591 l 726 591 l 726 452 l 209 452 z "},"G":{"ha":927,"x_min":71,"x_max":884,"o":"m 785 746 l 627 904 l 298 904 l 209 815 l 209 227 l 298 139 l 627 139 l 716 227 l 716 452 l 393 452 l 393 591 l 854 591 l 854 170 l 685 0 l 240 0 l 71 170 l 71 873 l 240 1042 l 685 1042 l 884 844 l 785 746 z "},"H":{"ha":927,"x_min":72,"x_max":856,"o":"m 856 0 l 718 0 l 718 452 l 210 452 l 210 0 l 72 0 l 72 1042 l 210 1042 l 210 591 l 718 591 l 718 1042 l 856 1042 l 856 0 z "},"I":{"ha":927,"x_min":72,"x_max":856,"o":"m 856 139 l 856 0 l 72 0 l 72 139 l 395 139 l 395 904 l 72 904 l 72 1042 l 856 1042 l 856 904 l 533 904 l 533 139 l 856 139 z "},"J":{"ha":927,"x_min":72,"x_max":856,"o":"m 72 462 l 210 462 l 210 227 l 299 139 l 629 139 l 718 227 l 718 1042 l 856 1042 l 856 170 l 686 0 l 241 0 l 72 170 l 72 462 z "},"K":{"ha":927,"x_min":72,"x_max":921,"o":"m 920 1042 l 549 522 l 921 0 l 751 0 l 429 452 l 210 452 l 210 0 l 72 0 l 72 1042 l 210 1042 l 210 591 l 429 591 l 751 1042 l 920 1042 z "},"L":{"ha":927,"x_min":71,"x_max":884,"o":"m 884 199 l 685 0 l 71 0 l 71 1042 l 209 1042 l 209 139 l 627 139 l 785 296 l 884 199 z "},"M":{"ha":927,"x_min":72,"x_max":856,"o":"m 210 0 l 72 0 l 72 730 l 228 1042 l 378 1042 l 464 869 l 551 1042 l 700 1042 l 856 730 l 856 0 l 718 0 l 718 699 l 625 884 l 533 699 l 533 0 l 395 0 l 395 699 l 302 884 l 210 699 l 210 0 z "},"N":{"ha":927,"x_min":72,"x_max":856,"o":"m 718 1042 l 856 1042 l 856 312 l 700 0 l 541 0 l 294 865 l 210 699 l 210 0 l 72 0 l 72 730 l 228 1042 l 387 1042 l 634 177 l 718 343 l 718 1042 z "},"O":{"ha":927,"x_min":72,"x_max":856,"o":"m 210 227 l 299 139 l 629 139 l 718 227 l 718 815 l 629 904 l 299 904 l 210 815 l 210 227 m 72 873 l 241 1042 l 686 1042 l 856 873 l 856 170 l 686 0 l 241 0 l 72 170 l 72 873 z "},"P":{"ha":927,"x_min":72,"x_max":856,"o":"m 210 323 l 210 0 l 72 0 l 72 1042 l 686 1042 l 856 873 l 856 492 l 686 323 l 210 323 m 210 462 l 629 462 l 718 550 l 718 815 l 629 904 l 210 904 l 210 462 z "},"Q":{"ha":927,"x_min":72,"x_max":856,"o":"m 681 191 l 718 227 l 718 815 l 629 904 l 299 904 l 210 815 l 210 227 l 299 139 l 553 139 l 400 494 l 528 549 l 681 191 m 72 873 l 241 1042 l 686 1042 l 856 873 l 856 170 l 686 0 l 241 0 l 72 170 l 72 873 z "},"R":{"ha":927,"x_min":72,"x_max":909,"o":"m 210 591 l 629 591 l 718 679 l 718 815 l 629 904 l 210 904 l 210 591 m 701 0 l 210 389 l 210 0 l 72 0 l 72 1042 l 686 1042 l 856 873 l 856 622 l 686 452 l 349 452 l 909 0 l 701 0 z "},"S":{"ha":927,"x_min":72,"x_max":856,"o":"m 718 702 l 718 770 l 622 904 l 306 904 l 210 770 l 210 724 l 306 591 l 693 591 l 856 362 l 856 229 l 693 0 l 235 0 l 72 229 l 72 340 l 210 340 l 210 272 l 306 139 l 622 139 l 718 272 l 718 319 l 622 452 l 235 452 l 72 680 l 72 814 l 235 1042 l 693 1042 l 856 814 l 856 702 l 718 702 z "},"T":{"ha":927,"x_min":43,"x_max":884,"o":"m 43 844 l 241 1042 l 686 1042 l 884 844 l 786 746 l 629 904 l 533 904 l 533 0 l 394 0 l 394 904 l 298 904 l 141 746 l 43 844 z "},"U":{"ha":927,"x_min":72,"x_max":856,"o":"m 72 1042 l 210 1042 l 210 227 l 299 139 l 629 139 l 718 227 l 718 1042 l 856 1042 l 856 170 l 686 0 l 241 0 l 72 170 l 72 1042 z "},"V":{"ha":927,"x_min":50,"x_max":878,"o":"m 427 0 l 272 155 l 50 1042 l 193 1042 l 397 226 l 464 159 l 530 226 l 734 1042 l 878 1042 q 655 155 664 189 l 500 0 l 427 0 z "},"W":{"ha":927,"x_min":72,"x_max":856,"o":"m 395 1042 l 533 1042 l 533 343 l 625 159 l 718 343 l 718 1042 l 856 1042 l 856 312 l 700 0 l 551 0 l 464 173 l 378 0 l 228 0 l 72 312 l 72 1042 l 210 1042 l 210 343 l 302 159 l 395 343 l 395 1042 z "},"X":{"ha":927,"x_min":72,"x_max":856,"o":"m 856 0 l 718 0 l 718 222 l 499 452 l 429 452 l 210 222 l 210 0 l 72 0 l 72 277 l 304 522 l 72 765 l 72 1042 l 210 1042 l 210 820 l 429 591 l 499 591 l 718 820 l 718 1042 l 856 1042 l 856 765 l 624 522 l 856 277 l 856 0 z "},"Y":{"ha":927,"x_min":42,"x_max":855,"o":"m 716 1042 l 855 1042 l 855 170 l 685 0 l 241 0 l 42 199 l 140 296 l 298 139 l 628 139 l 716 227 l 716 418 l 685 387 l 240 387 l 71 557 l 71 1042 l 209 1042 l 209 614 l 298 526 l 627 526 l 672 570 l 716 615 l 716 1042 z "},"Z":{"ha":927,"x_min":45,"x_max":882,"o":"m 72 904 l 72 1042 l 689 1042 l 882 820 l 237 213 l 302 139 l 856 139 l 856 0 l 239 0 l 45 223 l 691 829 l 627 904 l 72 904 z "},"[":{"ha":927,"x_min":219,"x_max":707,"o":"m 707 1042 l 707 904 l 358 904 l 358 139 l 707 139 l 707 0 l 219 0 l 219 1042 l 707 1042 z "},"\\":{"ha":927,"x_min":111,"x_max":809,"o":"m 260 1042 l 809 0 l 660 0 l 111 1042 l 260 1042 z "},"]":{"ha":927,"x_min":219,"x_max":707,"o":"m 707 1042 l 707 0 l 219 0 l 219 139 l 569 139 l 569 904 l 219 904 l 219 1042 l 707 1042 z "},"^":{"ha":927,"x_min":148,"x_max":779,"o":"m 637 484 l 482 871 l 444 871 l 290 484 l 148 484 l 397 1042 l 529 1042 l 779 484 l 637 484 z "},"_":{"ha":927,"x_min":-25,"x_max":958,"o":"m -25 -137 l -25 0 l 958 0 l 958 -137 l -25 -137 z "},"`":{"ha":927,"x_min":211,"x_max":552,"o":"m 409 863 l 211 1094 l 376 1094 l 552 863 l 409 863 z "},"a":{"ha":927,"x_min":72,"x_max":856,"o":"m 299 646 l 210 557 l 72 614 l 241 785 l 686 785 l 856 614 l 856 0 l 718 0 l 718 80 l 617 0 l 241 0 l 72 170 l 72 316 l 241 486 l 617 486 l 718 399 l 718 557 l 629 646 l 299 646 m 715 271 l 625 361 l 299 361 l 210 273 l 210 214 l 299 125 l 625 125 l 715 214 l 715 271 z "},"b":{"ha":927,"x_min":72,"x_max":856,"o":"m 686 785 l 856 614 l 856 170 l 686 0 l 311 0 l 210 100 l 210 0 l 72 0 l 72 1042 l 210 1042 l 210 684 l 311 785 l 686 785 m 368 646 l 211 488 l 211 296 l 368 139 l 629 139 l 718 227 l 718 557 l 629 646 l 368 646 z "},"c":{"ha":927,"x_min":72,"x_max":885,"o":"m 787 488 l 629 646 l 299 646 l 210 557 l 210 227 l 299 139 l 629 139 l 787 296 l 885 199 l 686 0 l 241 0 l 72 170 l 72 614 l 241 785 l 686 785 l 885 586 l 787 488 z "},"d":{"ha":927,"x_min":71,"x_max":856,"o":"m 717 1042 l 856 1042 l 856 0 l 717 0 l 717 100 l 616 0 l 241 0 l 71 170 l 71 614 l 241 785 l 616 785 l 717 684 l 717 1042 m 298 646 l 210 557 l 210 227 l 298 139 l 559 139 l 717 296 l 717 488 l 559 646 l 298 646 z "},"e":{"ha":927,"x_min":72,"x_max":856,"o":"m 686 0 l 241 0 l 72 170 l 72 614 l 241 785 l 686 785 l 856 614 l 856 323 l 210 323 l 210 227 l 299 139 l 629 139 l 738 248 l 836 150 l 686 0 m 210 462 l 718 462 l 718 557 l 629 646 l 299 646 l 210 557 l 210 462 z "},"f":{"ha":927,"x_min":72,"x_max":856,"o":"m 372 557 l 803 557 l 803 418 l 372 418 l 372 139 l 572 139 l 572 0 l 72 0 l 72 139 l 233 139 l 233 873 l 403 1042 l 686 1042 l 856 873 l 856 646 l 718 646 l 718 815 l 629 904 l 460 904 l 372 815 l 372 557 z "},"g":{"ha":927,"x_min":72,"x_max":856,"o":"m 856 785 l 856 -88 l 686 -258 l 241 -258 l 92 -109 l 191 -11 l 299 -119 l 629 -119 l 718 -31 l 718 170 l 617 69 l 241 69 l 72 239 l 72 614 l 241 785 l 617 785 l 718 684 l 718 785 l 856 785 m 559 208 l 718 366 l 718 488 l 559 646 l 299 646 l 210 557 l 210 296 l 299 208 l 559 208 z "},"h":{"ha":927,"x_min":72,"x_max":856,"o":"m 211 1042 l 211 684 l 311 785 l 686 785 l 856 614 l 856 0 l 718 0 l 718 557 l 629 646 l 368 646 l 211 488 l 211 0 l 72 0 l 72 130 l 72 130 l 72 586 q 72 1042 72 890 l 211 1042 z "},"i":{"ha":927,"x_min":72,"x_max":856,"o":"m 856 139 l 856 0 l 72 0 l 72 139 l 395 139 l 395 646 l 72 646 l 72 785 l 533 785 l 533 139 l 856 139 m 533 1042 l 533 904 l 395 904 l 395 1042 l 533 1042 z "},"j":{"ha":927,"x_min":72,"x_max":856,"o":"m 856 785 l 856 646 l 694 646 l 694 -218 l 525 -387 l 241 -387 l 72 -218 l 72 0 l 210 0 l 210 -160 l 299 -249 l 467 -249 l 556 -160 l 556 646 l 233 646 l 233 785 l 856 785 m 694 1042 l 694 904 l 556 904 l 556 1042 l 694 1042 z "},"k":{"ha":927,"x_min":72,"x_max":890,"o":"m 713 0 l 455 323 l 210 323 l 210 0 l 72 0 l 72 1042 l 210 1042 l 210 462 l 611 462 l 740 785 l 889 785 l 705 323 l 631 323 l 890 0 l 713 0 z "},"l":{"ha":927,"x_min":71,"x_max":856,"o":"m 856 139 l 856 0 l 71 0 l 71 139 l 394 139 l 394 904 l 71 904 l 71 1042 l 532 1042 l 532 139 l 856 139 z "},"m":{"ha":927,"x_min":72,"x_max":856,"o":"m 533 0 l 395 0 l 395 571 l 363 640 l 210 488 l 210 0 l 72 0 l 72 785 l 210 785 l 210 684 l 311 785 l 448 785 l 507 658 l 633 785 l 771 785 l 856 601 l 856 0 l 718 0 l 718 571 l 686 640 l 533 488 l 533 0 z "},"n":{"ha":927,"x_min":72,"x_max":856,"o":"m 72 785 l 210 785 l 210 684 l 311 785 l 686 785 l 856 614 l 856 0 l 718 0 l 718 557 l 629 646 l 368 646 l 210 488 l 210 0 l 72 0 l 72 785 z "},"o":{"ha":927,"x_min":72,"x_max":856,"o":"m 241 0 l 72 170 l 72 614 l 241 785 l 686 785 l 856 614 l 856 170 l 686 0 l 241 0 m 629 139 l 718 227 l 718 557 l 629 646 l 299 646 l 210 557 l 210 227 l 299 139 l 629 139 z "},"p":{"ha":927,"x_min":72,"x_max":856,"o":"m 211 -258 l 72 -258 l 72 239 l 72 239 q 72 512 72 330 l 72 785 l 211 785 l 211 684 l 311 785 l 686 785 l 856 614 l 856 170 l 686 0 l 311 0 l 211 100 l 211 -258 m 211 296 l 368 139 l 629 139 l 718 227 l 718 557 l 629 646 l 368 646 l 211 488 l 211 296 z "},"q":{"ha":927,"x_min":72,"x_max":856,"o":"m 856 -258 l 718 -258 l 718 100 l 617 0 l 241 0 l 72 170 l 72 614 l 241 785 l 617 785 l 718 684 l 718 785 l 856 785 l 856 -258 m 718 488 l 559 646 l 299 646 l 210 557 l 210 227 l 299 139 l 559 139 l 718 296 l 718 488 z "},"r":{"ha":927,"x_min":72,"x_max":885,"o":"m 72 785 l 211 785 l 211 684 l 311 785 l 686 785 l 885 586 l 787 488 l 629 646 l 368 646 l 211 488 l 211 0 l 72 0 l 72 130 l 72 130 q 72 457 72 239 l 72 785 z "},"s":{"ha":927,"x_min":72,"x_max":856,"o":"m 718 522 l 718 557 l 629 646 l 299 646 l 210 557 l 210 550 l 299 462 l 686 462 l 856 292 l 856 170 l 686 0 l 241 0 l 72 170 l 72 263 l 210 263 l 210 227 l 299 139 l 629 139 l 718 227 l 718 235 l 629 323 l 241 323 l 72 492 l 72 614 l 241 785 l 686 785 l 856 614 l 856 522 l 718 522 z "},"t":{"ha":927,"x_min":72,"x_max":885,"o":"m 72 646 l 72 785 l 266 785 l 266 1042 l 404 1042 l 404 785 l 856 785 l 856 646 l 404 646 l 404 227 l 493 139 l 629 139 l 787 296 l 885 199 l 686 0 l 435 0 l 266 170 l 266 646 l 72 646 z "},"u":{"ha":927,"x_min":72,"x_max":856,"o":"m 856 0 l 718 0 l 718 100 l 617 0 l 241 0 l 72 170 l 72 785 l 210 785 l 210 227 l 299 139 l 559 139 l 718 296 l 718 785 l 856 785 l 856 0 z "},"v":{"ha":927,"x_min":39,"x_max":888,"o":"m 430 0 l 275 155 l 39 785 l 186 785 l 394 232 l 464 162 l 534 232 l 741 785 l 888 785 l 652 155 l 498 0 l 430 0 z "},"w":{"ha":927,"x_min":72,"x_max":856,"o":"m 533 227 l 622 139 l 629 139 l 718 227 l 718 785 l 856 785 l 856 170 l 686 0 l 564 0 l 464 100 l 363 0 l 241 0 l 72 170 l 72 785 l 210 785 l 210 227 l 299 139 l 306 139 l 395 227 l 395 785 l 533 785 l 533 227 z "},"x":{"ha":927,"x_min":72,"x_max":856,"o":"m 856 0 l 718 0 l 718 164 l 506 323 l 422 323 l 210 164 l 210 0 l 72 0 l 72 233 l 284 392 l 72 551 l 72 785 l 210 785 l 210 621 l 422 462 l 506 462 l 718 621 l 718 785 l 856 785 l 856 551 l 644 392 l 856 233 l 856 0 z "},"y":{"ha":927,"x_min":42,"x_max":855,"o":"m 716 785 l 855 785 l 855 -88 l 685 -258 l 241 -258 l 42 -60 l 140 39 l 298 -119 l 628 -119 l 716 -31 l 716 170 l 616 69 l 241 69 l 71 239 l 71 785 l 210 785 l 210 296 l 298 208 l 559 208 l 694 344 l 716 366 l 716 785 z "},"z":{"ha":927,"x_min":29,"x_max":898,"o":"m 71 646 l 71 785 l 686 785 l 898 572 l 252 185 l 298 139 l 856 139 l 856 0 l 241 0 l 29 212 l 675 600 l 629 646 l 71 646 z "},"{":{"ha":927,"x_min":219,"x_max":707,"o":"m 707 1042 l 707 904 l 358 904 l 358 -132 l 707 -132 l 707 -271 l 219 -271 l 219 1042 l 707 1042 z "},"|":{"ha":927,"x_min":394,"x_max":533,"o":"m 533 1042 l 533 -269 l 394 -269 l 394 1042 l 533 1042 z "},"}":{"ha":927,"x_min":219,"x_max":707,"o":"m 707 1042 l 707 -271 l 219 -271 l 219 -132 l 569 -132 l 569 904 l 219 904 l 219 1042 l 707 1042 z "},"~":{"ha":927,"x_min":45,"x_max":882,"o":"m 45 680 l 159 758 l 198 701 q 315 629 253 621 q 426 686 353 633 q 624 785 555 779 q 844 640 738 794 l 882 583 l 768 505 l 729 562 q 616 630 677 638 q 507 574 578 625 q 307 474 376 480 q 84 623 192 465 l 45 680 z "},"¡":{"ha":927,"x_min":395,"x_max":534,"o":"m 395 526 l 533 526 l 533 -258 l 395 -258 l 395 526 m 533 785 l 533 646 l 395 646 l 395 785 l 533 785 z "},"£":{"ha":927,"x_min":68,"x_max":859,"o":"m 68 390 l 68 529 l 157 529 l 75 686 l 75 814 l 238 1042 l 696 1042 l 859 814 l 859 633 l 720 633 l 720 770 l 625 904 l 309 904 l 214 770 l 214 719 l 314 529 l 645 529 l 645 390 l 317 390 l 214 195 l 214 139 l 859 139 l 859 0 l 75 0 l 75 229 l 160 390 l 68 390 z "},"¥":{"ha":927,"x_min":212,"x_max":879,"o":"m 487 482 l 356 482 l 212 652 l 212 1042 l 330 1042 l 330 709 l 405 621 l 686 621 l 723 665 l 761 710 l 761 1042 l 879 1042 l 879 665 l 734 482 l 605 482 l 605 387 l 737 387 l 737 300 l 605 300 l 605 218 l 737 218 l 737 132 l 605 132 l 605 0 l 487 0 l 487 132 l 350 132 l 350 218 l 487 218 l 487 300 l 350 300 l 350 387 l 487 387 l 487 482 z "},"¦":{"ha":927,"x_min":394,"x_max":533,"o":"m 533 1042 l 533 479 l 394 479 l 394 1042 l 533 1042 m 533 205 l 533 -359 l 394 -359 l 394 205 l 533 205 z "},"§":{"ha":927,"x_min":94,"x_max":833,"o":"m 569 487 l 357 487 l 252 340 l 252 321 l 358 173 l 570 173 l 674 319 l 674 339 l 578 473 l 569 487 m 671 -109 l 569 35 l 288 35 l 115 276 l 115 384 l 239 556 l 115 728 l 115 801 l 288 1042 l 640 1042 l 833 772 l 694 728 l 569 905 l 358 905 l 258 765 l 357 625 l 640 625 l 812 384 l 812 276 l 688 104 l 812 -68 l 812 -149 l 640 -390 l 288 -390 l 94 -119 l 232 -76 l 358 -252 l 568 -252 l 671 -109 z "},"¨":{"ha":927,"x_min":220,"x_max":707,"o":"m 359 1002 l 359 863 l 220 863 l 220 1002 l 359 1002 m 707 1002 l 707 863 l 568 863 l 568 1002 l 707 1002 z "},"©":{"ha":927,"x_min":96,"x_max":831,"o":"m 670 589 l 606 525 l 531 601 l 397 601 l 366 570 l 366 437 l 397 407 l 531 407 l 606 482 l 670 418 l 568 317 l 359 317 l 277 400 l 277 608 l 359 691 l 568 691 l 638 621 l 670 589 m 463 871 q 203 764 311 871 q 96 504 96 656 q 203 243 96 351 q 463 136 311 136 q 724 243 616 136 q 831 504 831 351 q 724 764 831 656 q 463 871 616 871 m 660 700 q 741 504 741 618 q 660 307 741 389 q 463 226 578 226 q 267 307 349 226 q 186 504 186 389 q 267 700 186 618 q 463 781 349 781 q 660 700 578 781 z "},"®":{"ha":927,"x_min":96,"x_max":831,"o":"m 463 871 q 724 764 616 871 q 831 504 831 656 q 724 243 831 351 q 463 136 616 136 q 203 243 311 136 q 96 504 96 351 q 203 764 96 656 q 463 871 311 871 m 660 700 q 463 781 578 781 q 267 700 349 781 q 186 504 186 618 q 267 307 186 389 q 463 226 349 226 q 660 307 578 226 q 741 504 741 389 q 660 700 741 618 m 570 469 l 642 541 l 642 646 l 570 718 l 316 718 l 316 290 l 385 290 l 385 437 l 595 291 l 635 348 l 461 469 l 570 469 m 385 648 l 541 648 l 572 618 l 572 569 l 541 538 l 385 538 l 385 648 z "},"¯":{"ha":927,"x_min":208,"x_max":720,"o":"m 208 919 l 208 1057 l 720 1057 l 720 919 l 208 919 z "},"°":{"ha":927,"x_min":215,"x_max":738,"o":"m 477 1072 q 661 995 585 1072 l 661 995 q 738 810 738 918 q 661 625 738 702 l 661 625 q 477 549 585 549 q 292 625 368 549 q 215 810 215 702 q 292 995 215 918 l 292 995 q 477 1072 368 1072 m 566 899 q 477 936 529 936 q 387 899 424 936 q 351 810 351 863 q 387 722 351 759 q 477 685 424 685 q 566 722 529 685 l 566 722 q 602 810 602 758 q 566 899 602 863 l 566 899 z "},"±":{"ha":927,"x_min":72,"x_max":856,"o":"m 72 517 l 72 656 l 395 656 l 395 979 l 533 979 l 533 656 l 856 656 l 856 517 l 533 517 l 533 195 l 395 195 l 395 517 l 72 517 m 113 0 l 113 138 l 815 138 l 815 0 l 113 0 z "},"´":{"ha":927,"x_min":367,"x_max":708,"o":"m 367 863 l 543 1094 l 708 1094 l 510 863 l 367 863 z "},"µ":{"ha":927,"x_min":72,"x_max":856,"o":"m 210 -258 l 72 -258 l 72 785 l 210 785 l 210 295 l 367 139 l 561 139 l 718 295 l 718 785 l 856 785 l 856 0 l 718 0 l 718 99 l 618 0 l 309 0 l 210 99 l 210 -258 z "},"¶":{"ha":927,"x_min":106,"x_max":821,"o":"m 821 1109 l 821 1006 l 703 1006 l 703 0 l 600 0 l 600 1006 l 532 1006 l 532 0 l 429 0 l 429 604 l 349 523 l 255 523 l 106 673 l 106 960 l 255 1109 l 821 1109 z "},"·":{"ha":927,"x_min":123,"x_max":241,"o":"m 241 580 l 241 463 l 123 463 l 123 580 l 241 580 z "},"¸":{"ha":927,"x_min":320,"x_max":606,"o":"m 424 -227 q 435 -255 424 -243 q 463 -267 447 -267 q 491 -255 479 -267 q 502 -227 502 -243 q 491 -199 502 -211 l 491 -199 q 463 -189 479 -189 l 411 -189 l 411 6 l 515 6 l 515 -94 q 564 -126 543 -105 l 564 -126 q 606 -227 606 -168 q 564 -328 606 -287 q 463 -370 522 -370 q 362 -328 404 -370 q 320 -227 320 -287 l 424 -227 z "},"¿":{"ha":927,"x_min":72,"x_max":856,"o":"m 427 785 l 566 785 l 566 646 l 427 646 l 427 785 m 718 152 l 856 152 l 856 -30 l 693 -258 l 235 -258 l 72 -30 l 72 104 l 235 332 l 382 332 l 427 356 l 427 539 l 566 539 l 566 274 l 416 194 l 306 194 l 210 60 l 210 14 l 306 -119 l 622 -119 l 718 14 l 718 152 z "},"À":{"ha":927,"x_min":72,"x_max":856,"o":"m 210 494 l 718 494 l 718 815 l 629 904 l 299 904 l 210 815 l 210 494 m 718 356 l 210 356 l 210 0 l 72 0 l 72 873 l 241 1042 l 686 1042 l 856 873 l 856 0 l 718 0 l 718 356 m 435 1121 l 237 1352 l 401 1352 l 578 1121 l 435 1121 z "},"Á":{"ha":927,"x_min":72,"x_max":856,"o":"m 210 494 l 718 494 l 718 815 l 629 904 l 299 904 l 210 815 l 210 494 m 718 356 l 210 356 l 210 0 l 72 0 l 72 873 l 241 1042 l 686 1042 l 856 873 l 856 0 l 718 0 l 718 356 m 351 1121 l 527 1352 l 692 1352 l 494 1121 l 351 1121 z "},"Â":{"ha":927,"x_min":72,"x_max":856,"o":"m 210 494 l 718 494 l 718 815 l 629 904 l 299 904 l 210 815 l 210 494 m 718 356 l 210 356 l 210 0 l 72 0 l 72 873 l 241 1042 l 686 1042 l 856 873 l 856 0 l 718 0 l 718 356 m 164 1105 q 422 1422 242 1202 l 505 1422 q 764 1105 686 1202 l 623 1105 l 464 1299 l 305 1105 l 164 1105 z "},"Ã":{"ha":927,"x_min":72,"x_max":856,"o":"m 210 494 l 718 494 l 718 815 l 629 904 l 299 904 l 210 815 l 210 494 m 718 356 l 210 356 l 210 0 l 72 0 l 72 873 l 241 1042 l 686 1042 l 856 873 l 856 0 l 718 0 l 718 356 m 795 1333 l 795 1306 q 734 1155 789 1211 q 586 1097 679 1097 q 408 1200 492 1097 q 337 1253 365 1253 q 260 1228 281 1254 q 242 1152 242 1204 l 242 1126 l 132 1126 l 132 1152 q 174 1295 132 1242 q 338 1363 228 1364 q 493 1270 417 1362 q 586 1207 544 1207 q 656 1232 632 1207 q 686 1312 683 1258 l 686 1333 l 795 1333 z "},"Ä":{"ha":927,"x_min":72,"x_max":856,"o":"m 210 494 l 718 494 l 718 815 l 629 904 l 299 904 l 210 815 l 210 494 m 718 356 l 210 356 l 210 0 l 72 0 l 72 873 l 241 1042 l 686 1042 l 856 873 l 856 0 l 718 0 l 718 356 m 359 1259 l 359 1121 l 221 1121 l 221 1259 l 359 1259 m 707 1259 l 707 1121 l 569 1121 l 569 1259 l 707 1259 z "},"Å":{"ha":927,"x_min":72,"x_max":856,"o":"m 210 494 l 718 494 l 718 815 l 629 904 l 299 904 l 210 815 l 210 494 m 718 356 l 210 356 l 210 0 l 72 0 l 72 873 l 241 1042 l 686 1042 l 856 873 l 856 0 l 718 0 l 718 356 m 467 1361 q 579 1315 533 1361 q 625 1203 625 1269 q 579 1091 625 1137 q 467 1044 533 1044 q 356 1091 402 1044 q 309 1203 309 1137 q 356 1315 309 1269 q 467 1361 402 1361 m 467 1263 q 425 1246 442 1263 q 407 1203 407 1228 q 425 1160 407 1178 q 467 1143 442 1143 q 510 1160 492 1143 q 528 1203 528 1178 q 510 1246 528 1228 q 467 1263 492 1263 z "},"Æ":{"ha":1306,"x_min":167,"x_max":1205,"o":"m 629 356 l 305 356 l 305 0 l 167 0 l 167 873 l 336 1042 l 1006 1042 l 1205 844 l 1107 746 l 949 904 l 768 904 l 768 591 l 1047 591 l 1047 452 l 768 452 l 768 138 l 949 138 l 1107 296 l 1205 199 l 1006 0 l 629 0 l 629 356 m 629 815 l 541 904 l 394 904 l 305 815 l 305 494 l 629 494 l 629 815 z "},"Ç":{"ha":927,"x_min":72,"x_max":885,"o":"m 885 199 l 686 0 l 241 0 l 72 170 l 72 873 l 241 1042 l 686 1042 l 885 844 l 787 746 l 629 904 l 299 904 l 210 815 l 210 227 l 299 139 l 629 139 l 787 296 l 885 199 m 439 -227 q 450 -255 439 -243 q 478 -267 462 -267 q 506 -255 494 -267 q 517 -227 517 -243 q 506 -199 517 -211 l 506 -199 q 478 -189 494 -189 l 426 -189 l 426 6 l 530 6 l 530 -94 q 579 -126 558 -105 l 579 -126 q 621 -227 621 -168 q 579 -328 621 -287 q 478 -370 537 -370 q 377 -328 418 -370 q 335 -227 335 -287 l 439 -227 z "},"È":{"ha":927,"x_min":71,"x_max":884,"o":"m 209 452 l 209 139 l 627 139 l 785 296 l 884 199 l 685 0 l 71 0 l 71 1042 l 685 1042 l 884 844 l 785 746 l 627 904 l 209 904 l 209 591 l 726 591 l 726 452 l 209 452 m 448 1121 l 250 1352 l 414 1352 l 591 1121 l 448 1121 z "},"É":{"ha":927,"x_min":71,"x_max":884,"o":"m 209 452 l 209 139 l 627 139 l 785 296 l 884 199 l 685 0 l 71 0 l 71 1042 l 685 1042 l 884 844 l 785 746 l 627 904 l 209 904 l 209 591 l 726 591 l 726 452 l 209 452 m 363 1121 l 540 1352 l 705 1352 l 507 1121 l 363 1121 z "},"Ê":{"ha":927,"x_min":71,"x_max":884,"o":"m 209 452 l 209 139 l 627 139 l 785 296 l 884 199 l 685 0 l 71 0 l 71 1042 l 685 1042 l 884 844 l 785 746 l 627 904 l 209 904 l 209 591 l 726 591 l 726 452 l 209 452 m 177 1105 q 435 1422 255 1202 l 518 1422 q 777 1105 699 1202 l 635 1105 l 477 1299 l 318 1105 l 177 1105 z "},"Ë":{"ha":927,"x_min":71,"x_max":884,"o":"m 209 452 l 209 139 l 627 139 l 785 296 l 884 199 l 685 0 l 71 0 l 71 1042 l 685 1042 l 884 844 l 785 746 l 627 904 l 209 904 l 209 591 l 726 591 l 726 452 l 209 452 m 372 1259 l 372 1121 l 234 1121 l 234 1259 l 372 1259 m 720 1259 l 720 1121 l 582 1121 l 582 1259 l 720 1259 z "},"Ì":{"ha":927,"x_min":72,"x_max":856,"o":"m 856 139 l 856 0 l 72 0 l 72 139 l 395 139 l 395 904 l 72 904 l 72 1042 l 856 1042 l 856 904 l 533 904 l 533 139 l 856 139 m 435 1121 l 237 1352 l 401 1352 l 578 1121 l 435 1121 z "},"Í":{"ha":927,"x_min":72,"x_max":856,"o":"m 856 139 l 856 0 l 72 0 l 72 139 l 395 139 l 395 904 l 72 904 l 72 1042 l 856 1042 l 856 904 l 533 904 l 533 139 l 856 139 m 351 1121 l 527 1352 l 692 1352 l 494 1121 l 351 1121 z "},"Î":{"ha":927,"x_min":72,"x_max":856,"o":"m 856 139 l 856 0 l 72 0 l 72 139 l 395 139 l 395 904 l 72 904 l 72 1042 l 856 1042 l 856 904 l 533 904 l 533 139 l 856 139 m 164 1105 q 422 1422 242 1202 l 505 1422 q 764 1105 686 1202 l 623 1105 l 464 1299 l 305 1105 l 164 1105 z "},"Ï":{"ha":927,"x_min":72,"x_max":856,"o":"m 856 139 l 856 0 l 72 0 l 72 139 l 395 139 l 395 904 l 72 904 l 72 1042 l 856 1042 l 856 904 l 533 904 l 533 139 l 856 139 m 359 1259 l 359 1121 l 221 1121 l 221 1259 l 359 1259 m 707 1259 l 707 1121 l 569 1121 l 569 1259 l 707 1259 z "},"Ð":{"ha":927,"x_min":4,"x_max":856,"o":"m 140 590 l 140 1042 l 622 1042 l 856 808 l 856 235 l 622 0 l 140 0 l 140 453 l 4 453 l 4 590 l 140 590 m 278 590 l 528 590 l 528 453 l 278 453 l 278 139 l 564 139 l 718 292 l 718 751 l 564 904 l 278 904 l 278 590 z "},"Ñ":{"ha":927,"x_min":72,"x_max":856,"o":"m 718 1042 l 856 1042 l 856 312 l 700 0 l 541 0 l 294 865 l 210 699 l 210 0 l 72 0 l 72 730 l 228 1042 l 387 1042 l 634 177 l 718 343 l 718 1042 m 795 1333 l 795 1306 q 734 1155 789 1211 q 586 1097 679 1097 q 408 1200 492 1097 q 337 1253 365 1253 q 260 1228 281 1254 q 242 1152 242 1204 l 242 1126 l 132 1126 l 132 1152 q 174 1295 132 1242 q 338 1363 228 1364 q 493 1270 417 1362 q 586 1207 544 1207 q 656 1232 632 1207 q 686 1312 683 1258 l 686 1333 l 795 1333 z "},"Ò":{"ha":927,"x_min":72,"x_max":856,"o":"m 210 227 l 299 139 l 629 139 l 718 227 l 718 815 l 629 904 l 299 904 l 210 815 l 210 227 m 72 873 l 241 1042 l 686 1042 l 856 873 l 856 170 l 686 0 l 241 0 l 72 170 l 72 873 m 435 1121 l 237 1352 l 401 1352 l 578 1121 l 435 1121 z "},"Ó":{"ha":927,"x_min":72,"x_max":856,"o":"m 210 227 l 299 139 l 629 139 l 718 227 l 718 815 l 629 904 l 299 904 l 210 815 l 210 227 m 72 873 l 241 1042 l 686 1042 l 856 873 l 856 170 l 686 0 l 241 0 l 72 170 l 72 873 m 351 1121 l 527 1352 l 692 1352 l 494 1121 l 351 1121 z "},"Ô":{"ha":927,"x_min":72,"x_max":856,"o":"m 210 227 l 299 139 l 629 139 l 718 227 l 718 815 l 629 904 l 299 904 l 210 815 l 210 227 m 72 873 l 241 1042 l 686 1042 l 856 873 l 856 170 l 686 0 l 241 0 l 72 170 l 72 873 m 164 1105 q 422 1422 242 1202 l 505 1422 q 764 1105 686 1202 l 623 1105 l 464 1299 l 305 1105 l 164 1105 z "},"Õ":{"ha":927,"x_min":72,"x_max":856,"o":"m 210 227 l 299 139 l 629 139 l 718 227 l 718 815 l 629 904 l 299 904 l 210 815 l 210 227 m 72 873 l 241 1042 l 686 1042 l 856 873 l 856 170 l 686 0 l 241 0 l 72 170 l 72 873 m 795 1333 l 795 1306 q 734 1155 789 1211 q 586 1097 679 1097 q 408 1200 492 1097 q 337 1253 365 1253 q 260 1228 281 1254 q 242 1152 242 1204 l 242 1126 l 132 1126 l 132 1152 q 174 1295 132 1242 q 338 1363 228 1364 q 493 1270 417 1362 q 586 1207 544 1207 q 656 1232 632 1207 q 686 1312 683 1258 l 686 1333 l 795 1333 z "},"Ö":{"ha":927,"x_min":72,"x_max":856,"o":"m 210 227 l 299 139 l 629 139 l 718 227 l 718 815 l 629 904 l 299 904 l 210 815 l 210 227 m 72 873 l 241 1042 l 686 1042 l 856 873 l 856 170 l 686 0 l 241 0 l 72 170 l 72 873 m 359 1259 l 359 1121 l 221 1121 l 221 1259 l 359 1259 m 707 1259 l 707 1121 l 569 1121 l 569 1259 l 707 1259 z "},"×":{"ha":927,"x_min":138,"x_max":790,"o":"m 236 193 l 138 290 l 366 519 l 138 747 l 236 845 l 464 616 l 692 845 l 790 747 l 562 519 l 790 290 l 692 193 l 464 420 l 236 193 z "},"Ø":{"ha":927,"x_min":14,"x_max":915,"o":"m 109 132 l 72 170 l 72 873 l 241 1042 l 686 1042 l 732 996 l 766 1042 l 915 1042 l 819 909 l 856 873 l 856 170 l 686 0 l 241 0 l 196 45 l 163 0 l 14 0 l 109 132 m 718 768 l 278 160 l 299 139 l 629 139 l 718 227 l 718 768 m 210 273 l 650 882 l 629 904 l 299 904 l 210 815 l 210 273 z "},"Ù":{"ha":927,"x_min":72,"x_max":856,"o":"m 72 1042 l 210 1042 l 210 227 l 299 139 l 629 139 l 718 227 l 718 1042 l 856 1042 l 856 170 l 686 0 l 241 0 l 72 170 l 72 1042 m 435 1121 l 237 1352 l 401 1352 l 578 1121 l 435 1121 z "},"Ú":{"ha":927,"x_min":72,"x_max":856,"o":"m 72 1042 l 210 1042 l 210 227 l 299 139 l 629 139 l 718 227 l 718 1042 l 856 1042 l 856 170 l 686 0 l 241 0 l 72 170 l 72 1042 m 351 1121 l 527 1352 l 692 1352 l 494 1121 l 351 1121 z "},"Û":{"ha":927,"x_min":72,"x_max":856,"o":"m 72 1042 l 210 1042 l 210 227 l 299 139 l 629 139 l 718 227 l 718 1042 l 856 1042 l 856 170 l 686 0 l 241 0 l 72 170 l 72 1042 m 164 1105 q 422 1422 242 1202 l 505 1422 q 764 1105 686 1202 l 623 1105 l 464 1299 l 305 1105 l 164 1105 z "},"Ü":{"ha":927,"x_min":72,"x_max":856,"o":"m 72 1042 l 210 1042 l 210 227 l 299 139 l 629 139 l 718 227 l 718 1042 l 856 1042 l 856 170 l 686 0 l 241 0 l 72 170 l 72 1042 m 359 1259 l 359 1121 l 221 1121 l 221 1259 l 359 1259 m 707 1259 l 707 1121 l 569 1121 l 569 1259 l 707 1259 z "},"Ý":{"ha":927,"x_min":42,"x_max":855,"o":"m 716 1042 l 855 1042 l 855 170 l 685 0 l 241 0 l 42 199 l 140 296 l 298 139 l 628 139 l 716 227 l 716 418 l 685 387 l 240 387 l 71 557 l 71 1042 l 209 1042 l 209 614 l 298 526 l 627 526 l 672 570 l 716 615 l 716 1042 m 335 1121 l 511 1352 l 676 1352 l 478 1121 l 335 1121 z "},"Þ":{"ha":927,"x_min":72,"x_max":856,"o":"m 210 333 l 629 333 l 718 421 l 718 632 l 629 721 l 210 721 l 210 333 m 210 859 l 686 859 l 856 690 l 856 363 l 686 194 l 210 194 l 210 0 l 72 0 l 72 1042 l 210 1042 l 210 859 z "},"ß":{"ha":927,"x_min":78,"x_max":842,"o":"m 334 925 l 215 806 l 215 0 l 78 0 l 78 883 l 237 1042 l 574 1042 l 734 882 l 734 700 l 609 575 l 842 396 l 842 159 l 683 0 l 422 0 l 263 159 l 263 304 l 400 304 l 400 235 l 519 117 l 593 117 l 711 235 l 711 327 l 478 507 l 433 507 l 433 644 l 485 644 l 603 762 l 603 806 l 485 925 l 334 925 z "},"à":{"ha":927,"x_min":72,"x_max":856,"o":"m 299 646 l 210 557 l 72 614 l 241 785 l 686 785 l 856 614 l 856 0 l 718 0 l 718 80 l 617 0 l 241 0 l 72 170 l 72 316 l 241 486 l 617 486 l 718 399 l 718 557 l 629 646 l 299 646 m 715 271 l 625 361 l 299 361 l 210 273 l 210 214 l 299 125 l 625 125 l 715 214 l 715 271 m 435 863 l 237 1094 l 401 1094 l 578 863 l 435 863 z "},"á":{"ha":927,"x_min":72,"x_max":856,"o":"m 299 646 l 210 557 l 72 614 l 241 785 l 686 785 l 856 614 l 856 0 l 718 0 l 718 80 l 617 0 l 241 0 l 72 170 l 72 316 l 241 486 l 617 486 l 718 399 l 718 557 l 629 646 l 299 646 m 715 271 l 625 361 l 299 361 l 210 273 l 210 214 l 299 125 l 625 125 l 715 214 l 715 271 m 350 863 l 526 1094 l 691 1094 l 493 863 l 350 863 z "},"â":{"ha":927,"x_min":72,"x_max":856,"o":"m 299 646 l 210 557 l 72 614 l 241 785 l 686 785 l 856 614 l 856 0 l 718 0 l 718 80 l 617 0 l 241 0 l 72 170 l 72 316 l 241 486 l 617 486 l 718 399 l 718 557 l 629 646 l 299 646 m 715 271 l 625 361 l 299 361 l 210 273 l 210 214 l 299 125 l 625 125 l 715 214 l 715 271 m 164 848 q 422 1164 242 944 l 505 1164 q 764 848 686 944 l 623 848 l 464 1042 l 305 848 l 164 848 z "},"ã":{"ha":927,"x_min":72,"x_max":856,"o":"m 299 646 l 210 557 l 72 614 l 241 785 l 686 785 l 856 614 l 856 0 l 718 0 l 718 80 l 617 0 l 241 0 l 72 170 l 72 316 l 241 486 l 617 486 l 718 399 l 718 557 l 629 646 l 299 646 m 715 271 l 625 361 l 299 361 l 210 273 l 210 214 l 299 125 l 625 125 l 715 214 l 715 271 m 795 1075 l 795 1048 q 734 897 789 953 q 586 840 679 840 q 408 943 492 840 q 337 996 365 996 q 260 970 281 996 q 242 895 242 947 l 242 868 l 132 868 l 132 895 q 174 1038 132 984 q 338 1105 228 1106 q 493 1012 417 1105 q 586 949 544 949 q 656 974 632 949 q 686 1054 683 1000 l 686 1075 l 795 1075 z "},"ä":{"ha":927,"x_min":72,"x_max":856,"o":"m 299 646 l 210 557 l 72 614 l 241 785 l 686 785 l 856 614 l 856 0 l 718 0 l 718 80 l 617 0 l 241 0 l 72 170 l 72 316 l 241 486 l 617 486 l 718 399 l 718 557 l 629 646 l 299 646 m 715 271 l 625 361 l 299 361 l 210 273 l 210 214 l 299 125 l 625 125 l 715 214 l 715 271 m 359 1056 l 359 918 l 220 918 l 220 1056 l 359 1056 m 707 1056 l 707 918 l 568 918 l 568 1056 l 707 1056 z "},"å":{"ha":927,"x_min":72,"x_max":856,"o":"m 299 646 l 210 557 l 72 614 l 241 785 l 686 785 l 856 614 l 856 0 l 718 0 l 718 80 l 617 0 l 241 0 l 72 170 l 72 316 l 241 486 l 617 486 l 718 399 l 718 557 l 629 646 l 299 646 m 715 271 l 625 361 l 299 361 l 210 273 l 210 214 l 299 125 l 625 125 l 715 214 l 715 271 m 467 1171 q 579 1125 533 1171 q 625 1013 625 1079 q 579 901 625 947 q 467 854 533 854 q 356 901 402 854 q 309 1013 309 947 q 356 1125 309 1079 q 467 1171 402 1171 m 467 1074 q 425 1056 442 1074 q 407 1013 407 1038 q 425 970 407 988 q 467 953 442 953 q 510 970 492 953 q 528 1013 528 988 q 510 1056 528 1038 q 467 1074 492 1074 z "},"æ":{"ha":1437,"x_min":72,"x_max":1366,"o":"m 299 646 l 210 557 l 72 614 l 241 785 l 686 785 l 856 614 l 856 0 l 718 0 l 718 80 l 617 0 l 241 0 l 72 170 l 72 316 l 241 486 l 617 486 l 718 399 l 718 557 l 629 646 l 299 646 m 715 271 l 625 361 l 299 361 l 210 273 l 210 214 l 299 125 l 625 125 l 715 214 l 715 271 m 1196 0 l 751 0 l 581 170 l 581 614 l 751 785 l 1196 785 l 1365 614 l 1365 323 l 720 323 l 720 227 l 808 139 l 1138 139 l 1247 248 l 1345 150 l 1196 0 m 720 462 l 1227 462 l 1227 557 l 1138 646 l 808 646 l 720 557 l 720 462 z "},"ç":{"ha":927,"x_min":72,"x_max":885,"o":"m 787 488 l 629 646 l 299 646 l 210 557 l 210 227 l 299 139 l 629 139 l 787 296 l 885 199 l 686 0 l 241 0 l 72 170 l 72 614 l 241 785 l 686 785 l 885 586 l 787 488 m 439 -227 q 450 -255 439 -243 q 478 -267 462 -267 q 506 -255 494 -267 q 517 -227 517 -243 q 506 -199 517 -211 l 506 -199 q 478 -189 494 -189 l 426 -189 l 426 6 l 530 6 l 530 -94 q 579 -126 558 -105 l 579 -126 q 621 -227 621 -168 q 579 -328 621 -287 q 478 -370 537 -370 q 377 -328 418 -370 q 335 -227 335 -287 l 439 -227 z "},"è":{"ha":927,"x_min":72,"x_max":856,"o":"m 686 0 l 241 0 l 72 170 l 72 614 l 241 785 l 686 785 l 856 614 l 856 323 l 210 323 l 210 227 l 299 139 l 629 139 l 738 248 l 836 150 l 686 0 m 210 462 l 718 462 l 718 557 l 629 646 l 299 646 l 210 557 l 210 462 m 435 863 l 237 1094 l 401 1094 l 578 863 l 435 863 z "},"é":{"ha":927,"x_min":72,"x_max":856,"o":"m 686 0 l 241 0 l 72 170 l 72 614 l 241 785 l 686 785 l 856 614 l 856 323 l 210 323 l 210 227 l 299 139 l 629 139 l 738 248 l 836 150 l 686 0 m 210 462 l 718 462 l 718 557 l 629 646 l 299 646 l 210 557 l 210 462 m 351 863 l 527 1094 l 692 1094 l 494 863 l 351 863 z "},"ê":{"ha":927,"x_min":72,"x_max":856,"o":"m 686 0 l 241 0 l 72 170 l 72 614 l 241 785 l 686 785 l 856 614 l 856 323 l 210 323 l 210 227 l 299 139 l 629 139 l 738 248 l 836 150 l 686 0 m 210 462 l 718 462 l 718 557 l 629 646 l 299 646 l 210 557 l 210 462 m 164 848 q 422 1164 242 944 l 505 1164 q 764 848 686 944 l 623 848 l 464 1042 l 305 848 l 164 848 z "},"ë":{"ha":927,"x_min":72,"x_max":856,"o":"m 686 0 l 241 0 l 72 170 l 72 614 l 241 785 l 686 785 l 856 614 l 856 323 l 210 323 l 210 227 l 299 139 l 629 139 l 738 248 l 836 150 l 686 0 m 210 462 l 718 462 l 718 557 l 629 646 l 299 646 l 210 557 l 210 462 m 359 1002 l 359 863 l 221 863 l 221 1002 l 359 1002 m 707 1002 l 707 863 l 569 863 l 569 1002 l 707 1002 z "},"ì":{"ha":927,"x_min":72,"x_max":856,"o":"m 856 139 l 856 0 l 72 0 l 72 139 l 395 139 l 395 646 l 72 646 l 72 785 l 533 785 l 533 139 l 856 139 m 435 863 l 237 1094 l 401 1094 l 578 863 l 435 863 z "},"í":{"ha":927,"x_min":72,"x_max":856,"o":"m 856 139 l 856 0 l 72 0 l 72 139 l 395 139 l 395 646 l 72 646 l 72 785 l 533 785 l 533 139 l 856 139 m 351 863 l 527 1094 l 692 1094 l 494 863 l 351 863 z "},"î":{"ha":927,"x_min":72,"x_max":856,"o":"m 856 139 l 856 0 l 72 0 l 72 139 l 395 139 l 395 646 l 72 646 l 72 785 l 533 785 l 533 139 l 856 139 m 164 848 q 422 1164 242 944 l 505 1164 q 764 848 686 944 l 623 848 l 464 1042 l 305 848 l 164 848 z "},"ï":{"ha":927,"x_min":72,"x_max":856,"o":"m 856 139 l 856 0 l 72 0 l 72 139 l 395 139 l 395 646 l 72 646 l 72 785 l 533 785 l 533 139 l 856 139 m 359 1002 l 359 863 l 221 863 l 221 1002 l 359 1002 m 707 1002 l 707 863 l 569 863 l 569 1002 l 707 1002 z "},"ð":{"ha":927,"x_min":81,"x_max":849,"o":"m 338 517 l 219 399 l 219 255 l 338 136 l 590 136 l 709 255 l 709 399 l 590 517 l 338 517 m 741 916 l 846 720 l 846 157 l 686 -1 l 241 -1 l 81 159 l 81 496 l 241 655 l 618 655 l 709 565 l 709 670 l 631 836 l 506 745 l 433 845 l 551 931 l 338 931 l 406 1042 l 639 1042 l 663 1013 l 776 1095 l 849 995 l 741 916 z "},"ñ":{"ha":927,"x_min":72,"x_max":856,"o":"m 72 785 l 210 785 l 210 684 l 311 785 l 686 785 l 856 614 l 856 0 l 718 0 l 718 557 l 629 646 l 368 646 l 210 488 l 210 0 l 72 0 l 72 785 m 795 1075 l 795 1048 q 734 897 789 953 q 586 840 679 840 q 408 943 492 840 q 337 996 365 996 q 260 970 281 996 q 242 895 242 947 l 242 868 l 132 868 l 132 895 q 174 1038 132 984 q 338 1105 228 1106 q 493 1012 417 1105 q 586 949 544 949 q 656 974 632 949 q 686 1054 683 1000 l 686 1075 l 795 1075 z "},"ò":{"ha":927,"x_min":72,"x_max":856,"o":"m 241 0 l 72 170 l 72 614 l 241 785 l 686 785 l 856 614 l 856 170 l 686 0 l 241 0 m 629 139 l 718 227 l 718 557 l 629 646 l 299 646 l 210 557 l 210 227 l 299 139 l 629 139 m 435 863 l 237 1094 l 401 1094 l 578 863 l 435 863 z "},"ó":{"ha":927,"x_min":72,"x_max":856,"o":"m 241 0 l 72 170 l 72 614 l 241 785 l 686 785 l 856 614 l 856 170 l 686 0 l 241 0 m 629 139 l 718 227 l 718 557 l 629 646 l 299 646 l 210 557 l 210 227 l 299 139 l 629 139 m 351 863 l 527 1094 l 692 1094 l 494 863 l 351 863 z "},"ô":{"ha":927,"x_min":72,"x_max":856,"o":"m 241 0 l 72 170 l 72 614 l 241 785 l 686 785 l 856 614 l 856 170 l 686 0 l 241 0 m 629 139 l 718 227 l 718 557 l 629 646 l 299 646 l 210 557 l 210 227 l 299 139 l 629 139 m 164 848 q 422 1164 242 944 l 505 1164 q 764 848 686 944 l 623 848 l 464 1042 l 305 848 l 164 848 z "},"õ":{"ha":927,"x_min":72,"x_max":856,"o":"m 241 0 l 72 170 l 72 614 l 241 785 l 686 785 l 856 614 l 856 170 l 686 0 l 241 0 m 629 139 l 718 227 l 718 557 l 629 646 l 299 646 l 210 557 l 210 227 l 299 139 l 629 139 m 795 1075 l 795 1048 q 734 897 789 953 q 586 840 679 840 q 408 943 492 840 q 337 996 365 996 q 260 970 281 996 q 242 895 242 947 l 242 868 l 132 868 l 132 895 q 174 1038 132 984 q 338 1105 228 1106 q 493 1012 417 1105 q 586 949 544 949 q 656 974 632 949 q 686 1054 683 1000 l 686 1075 l 795 1075 z "},"ö":{"ha":927,"x_min":72,"x_max":856,"o":"m 241 0 l 72 170 l 72 614 l 241 785 l 686 785 l 856 614 l 856 170 l 686 0 l 241 0 m 629 139 l 718 227 l 718 557 l 629 646 l 299 646 l 210 557 l 210 227 l 299 139 l 629 139 m 359 1002 l 359 863 l 221 863 l 221 1002 l 359 1002 m 707 1002 l 707 863 l 569 863 l 569 1002 l 707 1002 z "},"÷":{"ha":927,"x_min":208,"x_max":720,"o":"m 208 353 l 208 491 l 720 491 l 720 353 l 208 353 m 533 168 l 533 29 l 395 29 l 395 168 l 533 168 m 533 814 l 533 675 l 395 675 l 395 814 l 533 814 z "},"ø":{"ha":927,"x_min":72,"x_max":856,"o":"m 660 614 l 410 139 l 629 139 l 718 227 l 718 557 l 660 614 m 601 785 l 667 911 l 817 911 l 728 743 l 856 614 l 856 170 l 686 0 l 336 0 l 268 -130 l 119 -130 l 206 35 l 72 170 l 72 614 l 241 785 l 601 785 m 274 164 l 528 646 l 299 646 l 210 557 l 210 227 l 274 164 z "},"ù":{"ha":927,"x_min":72,"x_max":856,"o":"m 856 0 l 718 0 l 718 100 l 617 0 l 241 0 l 72 170 l 72 785 l 210 785 l 210 227 l 299 139 l 559 139 l 718 296 l 718 785 l 856 785 l 856 0 m 435 863 l 237 1094 l 401 1094 l 578 863 l 435 863 z "},"ú":{"ha":927,"x_min":72,"x_max":856,"o":"m 856 0 l 718 0 l 718 100 l 617 0 l 241 0 l 72 170 l 72 785 l 210 785 l 210 227 l 299 139 l 559 139 l 718 296 l 718 785 l 856 785 l 856 0 m 351 863 l 527 1094 l 692 1094 l 494 863 l 351 863 z "},"û":{"ha":927,"x_min":72,"x_max":856,"o":"m 856 0 l 718 0 l 718 100 l 617 0 l 241 0 l 72 170 l 72 785 l 210 785 l 210 227 l 299 139 l 559 139 l 718 296 l 718 785 l 856 785 l 856 0 m 164 848 q 422 1164 242 944 l 505 1164 q 764 848 686 944 l 623 848 l 464 1042 l 305 848 l 164 848 z "},"ü":{"ha":927,"x_min":72,"x_max":856,"o":"m 856 0 l 718 0 l 718 100 l 617 0 l 241 0 l 72 170 l 72 785 l 210 785 l 210 227 l 299 139 l 559 139 l 718 296 l 718 785 l 856 785 l 856 0 m 359 1002 l 359 863 l 221 863 l 221 1002 l 359 1002 m 707 1002 l 707 863 l 569 863 l 569 1002 l 707 1002 z "},"ý":{"ha":927,"x_min":42,"x_max":855,"o":"m 716 785 l 855 785 l 855 -88 l 685 -258 l 241 -258 l 42 -60 l 140 39 l 298 -119 l 628 -119 l 716 -31 l 716 170 l 616 69 l 241 69 l 71 239 l 71 785 l 210 785 l 210 296 l 298 208 l 559 208 l 694 344 l 716 366 l 716 785 m 335 863 l 511 1094 l 676 1094 l 478 863 l 335 863 z "},"þ":{"ha":927,"x_min":72,"x_max":856,"o":"m 211 -258 l 72 -258 l 72 239 l 72 239 q 72 512 72 330 l 72 1042 l 211 1042 l 211 684 l 311 785 l 686 785 l 856 614 l 856 170 l 686 0 l 311 0 l 211 100 l 211 -258 m 211 296 l 368 139 l 629 139 l 718 227 l 718 557 l 629 646 l 368 646 l 211 488 l 211 296 z "},"ÿ":{"ha":927,"x_min":42,"x_max":855,"o":"m 716 785 l 855 785 l 855 -88 l 685 -258 l 241 -258 l 42 -60 l 140 39 l 298 -119 l 628 -119 l 716 -31 l 716 170 l 616 69 l 241 69 l 71 239 l 71 785 l 210 785 l 210 296 l 298 208 l 559 208 l 694 344 l 716 366 l 716 785 m 344 1002 l 344 863 l 205 863 l 205 1002 l 344 1002 m 692 1002 l 692 863 l 553 863 l 553 1002 l 692 1002 z "},"ı":{"ha":927,"x_min":72,"x_max":856,"o":"m 856 139 l 856 0 l 72 0 l 72 139 l 395 139 l 395 646 l 72 646 l 72 785 l 533 785 l 533 139 l 856 139 z "},"ˆ":{"ha":927,"x_min":163,"x_max":763,"o":"m 163 848 q 422 1164 241 944 l 505 1164 q 763 848 685 944 l 622 848 l 463 1042 l 304 848 l 163 848 z "},"ˇ":{"ha":927,"x_min":163,"x_max":763,"o":"m 304 1137 l 463 943 l 622 1137 l 763 1137 q 505 821 685 1041 l 422 821 q 163 1137 241 1041 l 304 1137 z "},"ˉ":{"ha":927,"x_min":264,"x_max":663,"o":"m 264 884 l 264 994 l 663 994 l 663 884 l 264 884 z "},"˘":{"ha":927,"x_min":182,"x_max":745,"o":"m 292 1080 q 386 961 292 988 q 464 950 422 950 q 541 961 505 950 q 635 1080 635 988 l 745 1080 q 572 855 745 907 q 464 840 520 840 q 355 855 408 840 q 182 1080 182 907 l 292 1080 z "},"˙":{"ha":927,"x_min":407,"x_max":520,"o":"m 520 1010 l 520 897 l 407 897 l 407 1010 l 520 1010 z "},"˚":{"ha":927,"x_min":309,"x_max":625,"o":"m 467 1103 q 578 1057 532 1103 q 625 945 625 1011 q 578 833 625 880 q 467 787 532 787 q 355 833 401 787 q 309 945 309 880 q 355 1057 309 1011 q 467 1103 401 1103 m 467 1006 q 424 988 441 1006 q 406 945 406 970 q 424 903 406 920 q 467 885 441 885 q 509 903 492 885 q 527 945 527 920 q 509 988 527 970 q 467 1006 492 1006 z "},"˛":{"ha":927,"x_min":355,"x_max":572,"o":"m 517 -318 q 402 -271 450 -318 q 355 -156 355 -223 q 402 -42 355 -90 q 517 6 449 6 l 572 6 l 572 -104 l 517 -104 q 480 -119 495 -104 q 465 -156 465 -135 q 480 -193 465 -178 q 517 -208 495 -208 l 572 -208 l 572 -318 l 517 -318 z "},"˜":{"ha":927,"x_min":133,"x_max":796,"o":"m 796 1075 l 796 1048 q 735 897 790 953 q 587 840 680 840 q 408 943 492 840 q 338 996 366 996 q 261 970 281 996 q 243 895 243 947 l 243 868 l 133 868 l 133 895 q 174 1038 133 984 q 338 1105 229 1106 q 494 1012 418 1105 q 587 949 545 949 q 657 974 633 949 q 686 1054 684 1000 l 686 1075 l 796 1075 z "},"˝":{"ha":694,"x_min":197,"x_max":879,"o":"m 197 863 l 373 1094 l 538 1094 l 340 863 l 197 863 m 538 863 l 714 1094 l 879 1094 l 681 863 l 538 863 z "},"‘":{"ha":927,"x_min":394,"x_max":532,"o":"m 467 877 l 532 877 l 532 739 l 394 739 l 394 877 l 455 1042 l 528 1042 l 467 877 z "},"’":{"ha":927,"x_min":395,"x_max":533,"o":"m 460 904 l 395 904 l 395 1042 l 533 1042 l 533 904 l 472 739 l 399 739 l 460 904 z "},"‚":{"ha":927,"x_min":395,"x_max":533,"o":"m 460 14 l 395 14 l 395 152 l 533 152 l 533 14 l 472 -152 l 399 -152 l 460 14 z "},"“":{"ha":1121,"x_min":394,"x_max":726,"o":"m 467 877 l 532 877 l 532 739 l 394 739 l 394 877 l 455 1042 l 528 1042 l 467 877 m 661 877 l 726 877 l 726 739 l 588 739 l 588 877 l 649 1042 l 722 1042 l 661 877 z "},"”":{"ha":1121,"x_min":395,"x_max":727,"o":"m 460 904 l 395 904 l 395 1042 l 533 1042 l 533 904 l 472 739 l 399 739 l 460 904 m 654 904 l 589 904 l 589 1042 l 727 1042 l 727 904 l 666 739 l 593 739 l 654 904 z "},"„":{"ha":1121,"x_min":395,"x_max":727,"o":"m 460 14 l 395 14 l 395 152 l 533 152 l 533 14 l 472 -152 l 399 -152 l 460 14 m 654 14 l 589 14 l 589 152 l 727 152 l 727 14 l 666 -152 l 593 -152 l 654 14 z "},"•":{"ha":927,"x_min":197,"x_max":729,"o":"m 463 752 q 651 674 573 752 q 729 486 729 596 q 651 298 729 376 q 463 220 573 220 q 275 298 353 220 q 197 486 197 376 q 275 674 197 596 q 463 752 353 752 z "},"…":{"ha":1389,"x_min":123,"x_max":1188,"o":"m 262 138 l 262 0 l 123 0 l 123 138 l 262 138 m 725 138 l 725 0 l 587 0 l 587 138 l 725 138 m 1188 138 l 1188 0 l 1050 0 l 1050 138 l 1188 138 z "},"‹":{"ha":927,"x_min":292,"x_max":635,"o":"m 524 614 l 635 531 l 466 307 l 635 83 l 524 0 l 292 307 l 483 559 l 524 614 z "},"›":{"ha":927,"x_min":292,"x_max":635,"o":"m 292 531 l 403 614 l 635 307 l 403 0 l 292 83 l 461 307 l 334 476 l 292 531 z "},"₣":{"ha":927,"x_min":9,"x_max":877,"o":"m 159 302 l 159 1042 l 678 1042 l 877 844 l 779 746 l 621 904 l 297 904 l 297 591 l 719 591 l 719 452 l 297 452 l 297 302 l 551 302 l 551 185 l 297 185 l 297 0 l 159 0 l 159 185 l 9 185 l 9 302 l 159 302 z "},"₤":{"ha":927,"x_min":68,"x_max":859,"o":"m 68 390 l 68 529 l 157 529 l 75 686 l 75 814 l 238 1042 l 696 1042 l 859 814 l 859 633 l 720 633 l 720 770 l 625 904 l 309 904 l 214 770 l 214 719 l 314 529 l 645 529 l 645 390 l 317 390 l 214 195 l 214 139 l 859 139 l 859 0 l 75 0 l 75 229 l 160 390 l 68 390 z "},"€":{"ha":927,"x_min":57,"x_max":870,"o":"m 57 555 l 57 693 l 186 693 l 186 873 l 356 1042 l 671 1042 l 870 844 l 772 746 l 614 904 l 413 904 l 325 815 l 325 693 l 712 693 l 712 555 l 325 555 l 325 488 l 712 488 l 712 349 l 325 349 l 325 227 l 413 139 l 614 139 l 723 248 l 772 296 l 870 199 l 671 0 l 356 0 l 186 170 l 186 349 l 57 349 l 57 488 l 186 488 l 186 555 l 57 555 z "},"−":{"ha":927,"x_min":208,"x_max":720,"o":"m 208 353 l 208 491 l 720 491 l 720 353 l 208 353 z "},"₺":{"ha":1005,"x_min":81,"x_max":924,"o":"m 336 671 l 336 778 l 108 720 l 81 825 l 336 889 l 336 1086 l 444 1086 l 444 917 l 679 976 l 705 871 l 444 805 l 444 699 l 679 758 l 705 653 l 444 587 l 444 116 q 665 200 573 130 q 817 532 804 309 l 924 526 q 646 61 906 184 q 388 5 518 0 l 336 7 l 336 560 l 108 503 l 81 607 l 336 671 z "},"Ā":{"ha":927,"x_min":72,"x_max":856,"o":"m 210 494 l 718 494 l 718 815 l 629 904 l 299 904 l 210 815 l 210 494 m 718 356 l 210 356 l 210 0 l 72 0 l 72 873 l 241 1042 l 686 1042 l 856 873 l 856 0 l 718 0 l 718 356 m 265 1142 l 265 1252 l 663 1252 l 663 1142 l 265 1142 z "},"ā":{"ha":927,"x_min":72,"x_max":856,"o":"m 299 646 l 210 557 l 72 614 l 241 785 l 686 785 l 856 614 l 856 0 l 718 0 l 718 80 l 617 0 l 241 0 l 72 170 l 72 316 l 241 486 l 617 486 l 718 399 l 718 557 l 629 646 l 299 646 m 715 271 l 625 361 l 299 361 l 210 273 l 210 214 l 299 125 l 625 125 l 715 214 l 715 271 m 265 884 l 265 994 l 663 994 l 663 884 l 265 884 z "},"Ă":{"ha":927,"x_min":72,"x_max":856,"o":"m 210 494 l 718 494 l 718 815 l 629 904 l 299 904 l 210 815 l 210 494 m 718 356 l 210 356 l 210 0 l 72 0 l 72 873 l 241 1042 l 686 1042 l 856 873 l 856 0 l 718 0 l 718 356 m 292 1338 q 387 1219 292 1246 q 465 1208 422 1208 q 542 1219 506 1208 q 636 1338 636 1246 l 746 1338 q 573 1113 746 1164 q 465 1097 521 1097 q 355 1113 408 1097 q 182 1338 182 1164 l 292 1338 z "},"ă":{"ha":927,"x_min":72,"x_max":856,"o":"m 299 646 l 210 557 l 72 614 l 241 785 l 686 785 l 856 614 l 856 0 l 718 0 l 718 80 l 617 0 l 241 0 l 72 170 l 72 316 l 241 486 l 617 486 l 718 399 l 718 557 l 629 646 l 299 646 m 715 271 l 625 361 l 299 361 l 210 273 l 210 214 l 299 125 l 625 125 l 715 214 l 715 271 m 292 1080 q 387 961 292 988 q 465 950 422 950 q 542 961 506 950 q 636 1080 636 988 l 746 1080 q 573 855 746 907 q 465 840 521 840 q 355 855 408 840 q 182 1080 182 907 l 292 1080 z "},"Ą":{"ha":927,"x_min":72,"x_max":856,"o":"m 210 494 l 718 494 l 718 815 l 629 904 l 299 904 l 210 815 l 210 494 m 718 0 l 718 356 l 210 356 l 210 0 l 72 0 l 72 873 l 241 1042 l 686 1042 l 856 873 l 856 -87 l 801 -87 q 764 -102 780 -87 q 749 -139 749 -118 q 765 -176 749 -161 q 801 -191 780 -191 l 856 -191 l 856 -301 l 801 -301 q 686 -254 734 -301 q 639 -139 639 -206 q 686 -25 639 -73 q 718 0 701 -10 z "},"ą":{"ha":927,"x_min":72,"x_max":856,"o":"m 715 271 l 625 361 l 299 361 l 210 273 l 210 214 l 299 125 l 625 125 l 715 214 l 715 271 m 718 0 l 718 80 l 617 0 l 241 0 l 72 170 l 72 316 l 241 486 l 617 486 l 718 399 l 718 557 l 629 646 l 299 646 l 210 557 l 72 614 l 241 785 l 686 785 l 856 614 l 856 -87 l 801 -87 q 764 -102 779 -87 q 749 -139 749 -118 q 764 -176 749 -161 q 801 -191 779 -191 l 856 -191 l 856 -301 l 801 -301 q 686 -254 734 -301 q 639 -139 639 -206 q 686 -25 639 -73 q 718 0 701 -10 z "},"Ć":{"ha":927,"x_min":72,"x_max":885,"o":"m 885 199 l 686 0 l 241 0 l 72 170 l 72 873 l 241 1042 l 686 1042 l 885 844 l 787 746 l 629 904 l 299 904 l 210 815 l 210 227 l 299 139 l 629 139 l 787 296 l 885 199 m 365 1121 l 541 1352 l 706 1352 l 508 1121 l 365 1121 z "},"ć":{"ha":927,"x_min":72,"x_max":885,"o":"m 787 488 l 629 646 l 299 646 l 210 557 l 210 227 l 299 139 l 629 139 l 787 296 l 885 199 l 686 0 l 241 0 l 72 170 l 72 614 l 241 785 l 686 785 l 885 586 l 787 488 m 365 863 l 541 1094 l 706 1094 l 508 863 l 365 863 z "},"Ĉ":{"ha":927,"x_min":72,"x_max":885,"o":"m 885 199 l 686 0 l 241 0 l 72 170 l 72 873 l 241 1042 l 686 1042 l 885 844 l 787 746 l 629 904 l 299 904 l 210 815 l 210 227 l 299 139 l 629 139 l 787 296 l 885 199 m 178 1105 q 437 1422 256 1202 l 519 1422 q 778 1105 700 1202 l 637 1105 l 478 1299 l 319 1105 l 178 1105 z "},"ĉ":{"ha":927,"x_min":72,"x_max":885,"o":"m 787 488 l 629 646 l 299 646 l 210 557 l 210 227 l 299 139 l 629 139 l 787 296 l 885 199 l 686 0 l 241 0 l 72 170 l 72 614 l 241 785 l 686 785 l 885 586 l 787 488 m 178 848 q 437 1164 256 944 l 519 1164 q 778 848 700 944 l 637 848 l 478 1042 l 319 848 l 178 848 z "},"Ċ":{"ha":927,"x_min":72,"x_max":885,"o":"m 885 199 l 686 0 l 241 0 l 72 170 l 72 873 l 241 1042 l 686 1042 l 885 844 l 787 746 l 629 904 l 299 904 l 210 815 l 210 227 l 299 139 l 629 139 l 787 296 l 885 199 m 535 1268 l 535 1155 l 422 1155 l 422 1268 l 535 1268 z "},"ċ":{"ha":927,"x_min":72,"x_max":885,"o":"m 787 488 l 629 646 l 299 646 l 210 557 l 210 227 l 299 139 l 629 139 l 787 296 l 885 199 l 686 0 l 241 0 l 72 170 l 72 614 l 241 785 l 686 785 l 885 586 l 787 488 m 535 1010 l 535 897 l 422 897 l 422 1010 l 535 1010 z "},"Č":{"ha":927,"x_min":72,"x_max":885,"o":"m 885 199 l 686 0 l 241 0 l 72 170 l 72 873 l 241 1042 l 686 1042 l 885 844 l 787 746 l 629 904 l 299 904 l 210 815 l 210 227 l 299 139 l 629 139 l 787 296 l 885 199 m 319 1395 l 478 1201 l 637 1395 l 778 1395 q 519 1078 700 1299 l 437 1078 q 178 1395 256 1299 l 319 1395 z "},"č":{"ha":927,"x_min":72,"x_max":885,"o":"m 787 488 l 629 646 l 299 646 l 210 557 l 210 227 l 299 139 l 629 139 l 787 296 l 885 199 l 686 0 l 241 0 l 72 170 l 72 614 l 241 785 l 686 785 l 885 586 l 787 488 m 319 1137 l 478 943 l 637 1137 l 778 1137 q 519 821 700 1041 l 437 821 q 178 1137 256 1041 l 319 1137 z "},"Ď":{"ha":927,"x_min":72,"x_max":856,"o":"m 210 904 l 210 139 l 564 139 l 718 292 l 718 751 l 564 904 l 210 904 m 72 1042 l 622 1042 l 856 808 l 856 235 l 622 0 l 72 0 l 72 1042 m 305 1395 l 464 1201 l 623 1395 l 764 1395 q 505 1078 686 1299 l 422 1078 q 164 1395 242 1299 l 305 1395 z "},"ď":{"ha":1019,"x_min":71,"x_max":1459,"o":"m 717 1042 l 856 1042 l 856 0 l 717 0 l 717 100 l 616 0 l 241 0 l 71 170 l 71 614 l 241 785 l 616 785 l 717 684 l 717 1042 m 298 646 l 210 557 l 210 227 l 298 139 l 559 139 l 717 296 l 717 488 l 559 646 l 298 646 m 1387 904 l 1321 904 l 1321 1042 l 1459 1042 l 1459 904 l 1398 739 l 1326 739 l 1387 904 z "},"Đ":{"ha":927,"x_min":4,"x_max":856,"o":"m 140 590 l 140 1042 l 622 1042 l 856 808 l 856 235 l 622 0 l 140 0 l 140 453 l 4 453 l 4 590 l 140 590 m 278 590 l 528 590 l 528 453 l 278 453 l 278 139 l 564 139 l 718 292 l 718 751 l 564 904 l 278 904 l 278 590 z "},"đ":{"ha":927,"x_min":106,"x_max":918,"o":"m 334 598 l 245 510 l 245 227 l 334 139 l 526 139 l 684 296 l 684 440 l 526 598 l 334 598 m 684 941 l 684 1042 l 823 1042 l 823 941 l 918 941 l 918 824 l 823 824 l 823 0 l 684 0 l 684 100 l 584 0 l 276 0 l 106 170 l 106 567 l 276 737 l 584 737 l 684 636 l 684 824 l 374 824 l 374 941 l 684 941 z "},"Ē":{"ha":927,"x_min":71,"x_max":884,"o":"m 209 452 l 209 139 l 627 139 l 785 296 l 884 199 l 685 0 l 71 0 l 71 1042 l 685 1042 l 884 844 l 785 746 l 627 904 l 209 904 l 209 591 l 726 591 l 726 452 l 209 452 m 278 1142 l 278 1252 l 676 1252 l 676 1142 l 278 1142 z "},"ē":{"ha":927,"x_min":72,"x_max":856,"o":"m 686 0 l 241 0 l 72 170 l 72 614 l 241 785 l 686 785 l 856 614 l 856 323 l 210 323 l 210 227 l 299 139 l 629 139 l 738 248 l 836 150 l 686 0 m 210 462 l 718 462 l 718 557 l 629 646 l 299 646 l 210 557 l 210 462 m 265 884 l 265 994 l 663 994 l 663 884 l 265 884 z "},"Ĕ":{"ha":927,"x_min":71,"x_max":884,"o":"m 209 452 l 209 139 l 627 139 l 785 296 l 884 199 l 685 0 l 71 0 l 71 1042 l 685 1042 l 884 844 l 785 746 l 627 904 l 209 904 l 209 591 l 726 591 l 726 452 l 209 452 m 305 1338 q 399 1219 305 1246 q 477 1208 435 1208 q 555 1219 519 1208 q 649 1338 649 1246 l 759 1338 q 586 1113 759 1164 q 477 1097 534 1097 q 368 1113 421 1097 q 195 1338 195 1164 l 305 1338 z "},"ĕ":{"ha":927,"x_min":72,"x_max":856,"o":"m 686 0 l 241 0 l 72 170 l 72 614 l 241 785 l 686 785 l 856 614 l 856 323 l 210 323 l 210 227 l 299 139 l 629 139 l 738 248 l 836 150 l 686 0 m 210 462 l 718 462 l 718 557 l 629 646 l 299 646 l 210 557 l 210 462 m 292 1080 q 387 961 292 988 q 465 950 422 950 q 542 961 506 950 q 636 1080 636 988 l 746 1080 q 573 855 746 907 q 465 840 521 840 q 355 855 408 840 q 182 1080 182 907 l 292 1080 z "},"Ė":{"ha":927,"x_min":71,"x_max":884,"o":"m 209 452 l 209 139 l 627 139 l 785 296 l 884 199 l 685 0 l 71 0 l 71 1042 l 685 1042 l 884 844 l 785 746 l 627 904 l 209 904 l 209 591 l 726 591 l 726 452 l 209 452 m 534 1268 l 534 1155 l 420 1155 l 420 1268 l 534 1268 z "},"ė":{"ha":927,"x_min":72,"x_max":856,"o":"m 686 0 l 241 0 l 72 170 l 72 614 l 241 785 l 686 785 l 856 614 l 856 323 l 210 323 l 210 227 l 299 139 l 629 139 l 738 248 l 836 150 l 686 0 m 210 462 l 718 462 l 718 557 l 629 646 l 299 646 l 210 557 l 210 462 m 521 1010 l 521 897 l 408 897 l 408 1010 l 521 1010 z "},"Ę":{"ha":927,"x_min":71,"x_max":884,"o":"m 209 452 l 209 139 l 627 139 l 785 296 l 884 199 l 685 0 l 71 0 l 71 1042 l 685 1042 l 884 844 l 785 746 l 627 904 l 209 904 l 209 591 l 726 591 l 726 452 l 209 452 m 829 -318 q 714 -271 762 -318 q 667 -156 667 -223 q 714 -42 667 -90 q 829 6 761 6 l 884 6 l 884 -104 l 829 -104 q 792 -119 807 -104 q 777 -156 777 -135 q 792 -193 777 -178 q 829 -208 807 -208 l 884 -208 l 884 -318 l 829 -318 z "},"ę":{"ha":927,"x_min":72,"x_max":856,"o":"m 686 0 l 241 0 l 72 170 l 72 614 l 241 785 l 686 785 l 856 614 l 856 323 l 210 323 l 210 227 l 299 139 l 629 139 l 738 248 l 836 150 l 686 0 m 210 462 l 718 462 l 718 557 l 629 646 l 299 646 l 210 557 l 210 462 m 801 -195 q 686 -147 734 -195 q 639 -33 639 -100 q 686 81 639 34 q 801 130 733 130 l 856 130 l 856 19 l 801 19 q 764 4 779 19 q 749 -33 749 -12 q 764 -70 749 -54 q 801 -85 779 -85 l 856 -85 l 856 -195 l 801 -195 z "},"Ě":{"ha":927,"x_min":71,"x_max":884,"o":"m 209 452 l 209 139 l 627 139 l 785 296 l 884 199 l 685 0 l 71 0 l 71 1042 l 685 1042 l 884 844 l 785 746 l 627 904 l 209 904 l 209 591 l 726 591 l 726 452 l 209 452 m 318 1395 l 477 1201 l 635 1395 l 777 1395 q 518 1078 699 1299 l 435 1078 q 177 1395 255 1299 l 318 1395 z "},"ě":{"ha":927,"x_min":72,"x_max":856,"o":"m 686 0 l 241 0 l 72 170 l 72 614 l 241 785 l 686 785 l 856 614 l 856 323 l 210 323 l 210 227 l 299 139 l 629 139 l 738 248 l 836 150 l 686 0 m 210 462 l 718 462 l 718 557 l 629 646 l 299 646 l 210 557 l 210 462 m 305 1137 l 464 943 l 623 1137 l 764 1137 q 505 821 686 1041 l 422 821 q 164 1137 242 1041 l 305 1137 z "},"Ĝ":{"ha":927,"x_min":71,"x_max":884,"o":"m 785 746 l 627 904 l 298 904 l 209 815 l 209 227 l 298 139 l 627 139 l 716 227 l 716 452 l 393 452 l 393 591 l 854 591 l 854 170 l 685 0 l 240 0 l 71 170 l 71 873 l 240 1042 l 685 1042 l 884 844 l 785 746 m 177 1105 q 435 1422 255 1202 l 518 1422 q 777 1105 699 1202 l 635 1105 l 477 1299 l 318 1105 l 177 1105 z "},"ĝ":{"ha":927,"x_min":72,"x_max":856,"o":"m 856 785 l 856 -88 l 686 -258 l 241 -258 l 92 -109 l 191 -11 l 299 -119 l 629 -119 l 718 -31 l 718 170 l 617 69 l 241 69 l 72 239 l 72 614 l 241 785 l 617 785 l 718 684 l 718 785 l 856 785 m 559 208 l 718 366 l 718 488 l 559 646 l 299 646 l 210 557 l 210 296 l 299 208 l 559 208 m 164 848 q 422 1164 242 944 l 505 1164 q 764 848 686 944 l 623 848 l 464 1042 l 305 848 l 164 848 z "},"Ğ":{"ha":927,"x_min":71,"x_max":884,"o":"m 785 746 l 627 904 l 298 904 l 209 815 l 209 227 l 298 139 l 627 139 l 716 227 l 716 452 l 393 452 l 393 591 l 854 591 l 854 170 l 685 0 l 240 0 l 71 170 l 71 873 l 240 1042 l 685 1042 l 884 844 l 785 746 m 305 1338 q 399 1219 305 1246 q 477 1208 435 1208 q 555 1219 519 1208 q 649 1338 649 1246 l 759 1338 q 586 1113 759 1164 q 477 1097 534 1097 q 368 1113 421 1097 q 195 1338 195 1164 l 305 1338 z "},"ğ":{"ha":927,"x_min":72,"x_max":856,"o":"m 856 785 l 856 -88 l 686 -258 l 241 -258 l 92 -109 l 191 -11 l 299 -119 l 629 -119 l 718 -31 l 718 170 l 617 69 l 241 69 l 72 239 l 72 614 l 241 785 l 617 785 l 718 684 l 718 785 l 856 785 m 559 208 l 718 366 l 718 488 l 559 646 l 299 646 l 210 557 l 210 296 l 299 208 l 559 208 m 292 1080 q 387 961 292 988 q 465 950 422 950 q 542 961 506 950 q 636 1080 636 988 l 746 1080 q 573 855 746 907 q 465 840 521 840 q 355 855 408 840 q 182 1080 182 907 l 292 1080 z "},"Ġ":{"ha":927,"x_min":71,"x_max":884,"o":"m 785 746 l 627 904 l 298 904 l 209 815 l 209 227 l 298 139 l 627 139 l 716 227 l 716 452 l 393 452 l 393 591 l 854 591 l 854 170 l 685 0 l 240 0 l 71 170 l 71 873 l 240 1042 l 685 1042 l 884 844 l 785 746 m 534 1268 l 534 1155 l 420 1155 l 420 1268 l 534 1268 z "},"ġ":{"ha":927,"x_min":72,"x_max":856,"o":"m 856 785 l 856 -88 l 686 -258 l 241 -258 l 92 -109 l 191 -11 l 299 -119 l 629 -119 l 718 -31 l 718 170 l 617 69 l 241 69 l 72 239 l 72 614 l 241 785 l 617 785 l 718 684 l 718 785 l 856 785 m 559 208 l 718 366 l 718 488 l 559 646 l 299 646 l 210 557 l 210 296 l 299 208 l 559 208 m 521 1010 l 521 897 l 408 897 l 408 1010 l 521 1010 z "},"Ģ":{"ha":927,"x_min":71,"x_max":884,"o":"m 785 746 l 627 904 l 298 904 l 209 815 l 209 227 l 298 139 l 627 139 l 716 227 l 716 452 l 393 452 l 393 591 l 854 591 l 854 170 l 685 0 l 240 0 l 71 170 l 71 873 l 240 1042 l 685 1042 l 884 844 l 785 746 m 473 -239 l 408 -239 l 408 -100 l 546 -100 l 546 -239 l 485 -404 l 412 -404 l 473 -239 z "},"ģ":{"ha":927,"x_min":72,"x_max":856,"o":"m 856 785 l 856 -88 l 686 -258 l 241 -258 l 92 -109 l 191 -11 l 299 -119 l 629 -119 l 718 -31 l 718 170 l 617 69 l 241 69 l 72 239 l 72 614 l 241 785 l 617 785 l 718 684 l 718 785 l 856 785 m 559 208 l 718 366 l 718 488 l 559 646 l 299 646 l 210 557 l 210 296 l 299 208 l 559 208 m 467 1018 l 532 1018 l 532 880 l 394 880 l 394 1018 l 455 1183 l 528 1183 l 467 1018 z "},"Ĥ":{"ha":927,"x_min":72,"x_max":856,"o":"m 856 0 l 718 0 l 718 452 l 210 452 l 210 0 l 72 0 l 72 1042 l 210 1042 l 210 591 l 718 591 l 718 1042 l 856 1042 l 856 0 m 164 1105 q 422 1422 242 1202 l 505 1422 q 764 1105 686 1202 l 623 1105 l 464 1299 l 305 1105 l 164 1105 z "},"ĥ":{"ha":927,"x_min":72,"x_max":856,"o":"m 211 1042 l 211 684 l 311 785 l 686 785 l 856 614 l 856 0 l 718 0 l 718 557 l 629 646 l 368 646 l 211 488 l 211 0 l 72 0 l 72 130 l 72 130 l 72 586 q 72 1042 72 890 l 211 1042 m 164 1086 q 422 1402 242 1182 l 505 1402 q 764 1086 686 1182 l 623 1086 l 464 1280 l 305 1086 l 164 1086 z "},"Ħ":{"ha":927,"x_min":38,"x_max":885,"o":"m 788 790 l 788 0 l 650 0 l 650 452 l 278 452 l 278 0 l 140 0 l 140 790 l 38 790 l 38 907 l 140 907 l 140 1042 l 278 1042 l 278 907 l 650 907 l 650 1042 l 788 1042 l 788 907 l 885 907 l 885 790 l 788 790 m 278 790 l 278 591 l 650 591 l 650 790 l 278 790 z "},"ħ":{"ha":927,"x_min":18,"x_max":836,"o":"m 113 968 l 113 1042 l 252 1042 l 252 968 l 567 968 l 567 851 l 252 851 l 252 684 l 352 785 l 666 785 l 836 614 l 836 0 l 697 0 l 697 557 l 608 646 l 409 646 l 252 488 l 252 0 l 113 0 l 113 851 l 18 851 l 18 968 l 113 968 z "},"Ĩ":{"ha":927,"x_min":72,"x_max":856,"o":"m 856 139 l 856 0 l 72 0 l 72 139 l 395 139 l 395 904 l 72 904 l 72 1042 l 856 1042 l 856 904 l 533 904 l 533 139 l 856 139 m 795 1333 l 795 1306 q 734 1155 789 1211 q 586 1097 679 1097 q 408 1200 492 1097 q 337 1253 365 1253 q 260 1228 281 1254 q 242 1152 242 1204 l 242 1126 l 132 1126 l 132 1152 q 174 1295 132 1242 q 338 1363 228 1364 q 493 1270 417 1362 q 586 1207 544 1207 q 656 1232 632 1207 q 686 1312 683 1258 l 686 1333 l 795 1333 z "},"ĩ":{"ha":927,"x_min":72,"x_max":856,"o":"m 856 139 l 856 0 l 72 0 l 72 139 l 395 139 l 395 646 l 72 646 l 72 785 l 533 785 l 533 139 l 856 139 m 795 1075 l 795 1048 q 734 897 789 953 q 586 840 679 840 q 408 943 492 840 q 337 996 365 996 q 260 970 281 996 q 242 895 242 947 l 242 868 l 132 868 l 132 895 q 174 1038 132 984 q 338 1105 228 1106 q 493 1012 417 1105 q 586 949 544 949 q 656 974 632 949 q 686 1054 683 1000 l 686 1075 l 795 1075 z "},"Ī":{"ha":927,"x_min":72,"x_max":856,"o":"m 856 139 l 856 0 l 72 0 l 72 139 l 395 139 l 395 904 l 72 904 l 72 1042 l 856 1042 l 856 904 l 533 904 l 533 139 l 856 139 m 265 1142 l 265 1252 l 663 1252 l 663 1142 l 265 1142 z "},"ī":{"ha":927,"x_min":72,"x_max":856,"o":"m 856 139 l 856 0 l 72 0 l 72 139 l 395 139 l 395 646 l 72 646 l 72 785 l 533 785 l 533 139 l 856 139 m 265 884 l 265 994 l 663 994 l 663 884 l 265 884 z "},"Ĭ":{"ha":927,"x_min":72,"x_max":856,"o":"m 856 139 l 856 0 l 72 0 l 72 139 l 395 139 l 395 904 l 72 904 l 72 1042 l 856 1042 l 856 904 l 533 904 l 533 139 l 856 139 m 292 1338 q 387 1219 292 1246 q 465 1208 422 1208 q 542 1219 506 1208 q 636 1338 636 1246 l 746 1338 q 573 1113 746 1164 q 465 1097 521 1097 q 355 1113 408 1097 q 182 1338 182 1164 l 292 1338 z "},"ĭ":{"ha":927,"x_min":72,"x_max":856,"o":"m 856 139 l 856 0 l 72 0 l 72 139 l 395 139 l 395 646 l 72 646 l 72 785 l 533 785 l 533 139 l 856 139 m 292 1080 q 387 961 292 988 q 465 950 422 950 q 542 961 506 950 q 636 1080 636 988 l 746 1080 q 573 855 746 907 q 465 840 521 840 q 355 855 408 840 q 182 1080 182 907 l 292 1080 z "},"Į":{"ha":927,"x_min":72,"x_max":857,"o":"m 688 0 l 72 0 l 72 139 l 395 139 l 395 904 l 72 904 l 72 1042 l 856 1042 l 856 904 l 533 904 l 533 139 l 856 139 l 856 46 l 857 46 l 857 -64 l 802 -64 q 765 -80 780 -64 q 749 -116 749 -95 q 765 -153 749 -138 q 802 -168 780 -168 l 857 -168 l 857 -278 l 802 -278 q 687 -231 734 -278 q 640 -116 640 -184 q 686 -2 640 -50 q 688 0 687 -1 z "},"į":{"ha":927,"x_min":72,"x_max":856,"o":"m 533 1042 l 533 904 l 395 904 l 395 1042 l 533 1042 m 688 0 l 72 0 l 72 139 l 395 139 l 395 646 l 72 646 l 72 785 l 533 785 l 533 139 l 856 139 l 856 -64 l 801 -64 q 764 -79 780 -64 q 749 -116 749 -94 q 765 -153 749 -137 q 801 -168 780 -168 l 856 -168 l 856 -278 l 801 -278 q 686 -231 734 -278 q 639 -116 639 -183 q 686 -1 639 -49 q 688 0 687 -1 z "},"İ":{"ha":927,"x_min":72,"x_max":856,"o":"m 856 139 l 856 0 l 72 0 l 72 139 l 395 139 l 395 904 l 72 904 l 72 1042 l 856 1042 l 856 904 l 533 904 l 533 139 l 856 139 m 521 1268 l 521 1155 l 408 1155 l 408 1268 l 521 1268 z "},"Ĳ":{"ha":927,"x_min":24,"x_max":895,"o":"m 401 139 l 401 0 l 24 0 l 24 139 l 144 139 l 144 904 l 24 904 l 24 1042 l 401 1042 l 401 904 l 282 904 l 282 139 l 401 139 m 382 462 l 520 462 l 520 227 l 609 139 l 667 139 l 756 227 l 756 1042 l 895 1042 l 895 170 l 725 0 l 551 0 l 382 170 l 382 462 z "},"ĳ":{"ha":927,"x_min":52,"x_max":881,"o":"m 429 139 l 429 0 l 52 0 l 52 139 l 171 139 l 171 646 l 52 646 l 52 785 l 309 785 l 309 139 l 429 139 m 309 1042 l 309 904 l 171 904 l 171 1042 l 309 1042 m 881 785 l 881 646 l 774 646 l 774 -218 l 604 -387 l 389 -387 l 219 -218 l 219 -102 l 357 -102 l 357 -160 l 446 -249 l 547 -249 l 635 -160 l 635 646 l 516 646 l 516 785 l 881 785 m 774 1042 l 774 904 l 635 904 l 635 1042 l 774 1042 z "},"Ĵ":{"ha":927,"x_min":72,"x_max":1093,"o":"m 72 462 l 210 462 l 210 227 l 299 139 l 629 139 l 718 227 l 718 1042 l 856 1042 l 856 170 l 686 0 l 241 0 l 72 170 l 72 462 m 494 1105 q 752 1422 572 1202 l 835 1422 q 1093 1105 1015 1202 l 952 1105 l 793 1299 l 635 1105 l 494 1105 z "},"ĵ":{"ha":927,"x_min":81,"x_max":865,"o":"m 244 848 q 503 1164 321 944 l 585 1164 q 843 848 766 944 l 703 848 l 544 1042 l 385 848 l 244 848 m 865 785 l 865 646 l 703 646 l 703 -218 l 534 -387 l 250 -387 l 81 -218 l 81 0 l 219 0 l 219 -160 l 308 -249 l 476 -249 l 565 -160 l 565 646 l 242 646 l 242 785 l 865 785 z "},"Ķ":{"ha":927,"x_min":72,"x_max":921,"o":"m 920 1042 l 549 522 l 921 0 l 751 0 l 429 452 l 210 452 l 210 0 l 72 0 l 72 1042 l 210 1042 l 210 591 l 429 591 l 751 1042 l 920 1042 m 493 -239 l 427 -239 l 427 -100 l 566 -100 l 566 -239 l 505 -404 l 432 -404 l 493 -239 z "},"ķ":{"ha":927,"x_min":72,"x_max":890,"o":"m 713 0 l 455 323 l 210 323 l 210 0 l 72 0 l 72 1042 l 210 1042 l 210 462 l 611 462 l 740 785 l 889 785 l 705 323 l 631 323 l 890 0 l 713 0 m 477 -239 l 412 -239 l 412 -100 l 550 -100 l 550 -239 l 489 -404 l 416 -404 l 477 -239 z "},"ĸ":{"ha":927,"x_min":72,"x_max":890,"o":"m 713 0 l 455 323 l 210 323 l 210 0 l 72 0 l 72 785 l 210 785 l 210 462 l 611 462 l 740 785 l 889 785 l 705 323 l 631 323 l 890 0 l 713 0 z "},"Ĺ":{"ha":927,"x_min":71,"x_max":884,"o":"m 884 199 l 685 0 l 71 0 l 71 1042 l 209 1042 l 209 139 l 627 139 l 785 296 l 884 199 m 363 1121 l 540 1352 l 705 1352 l 507 1121 l 363 1121 z "},"ĺ":{"ha":927,"x_min":71,"x_max":856,"o":"m 856 139 l 856 0 l 71 0 l 71 139 l 394 139 l 394 904 l 71 904 l 71 1042 l 532 1042 l 532 139 l 856 139 m 293 1172 l 469 1402 l 634 1402 l 436 1172 l 293 1172 z "},"Ļ":{"ha":927,"x_min":71,"x_max":884,"o":"m 884 199 l 685 0 l 71 0 l 71 1042 l 209 1042 l 209 139 l 627 139 l 785 296 l 884 199 m 473 -239 l 408 -239 l 408 -100 l 546 -100 l 546 -239 l 485 -404 l 412 -404 l 473 -239 z "},"ļ":{"ha":927,"x_min":71,"x_max":856,"o":"m 856 139 l 856 0 l 71 0 l 71 139 l 394 139 l 394 904 l 71 904 l 71 1042 l 532 1042 l 532 139 l 856 139 m 460 -239 l 394 -239 l 394 -100 l 532 -100 l 532 -239 l 471 -404 l 399 -404 l 460 -239 z "},"Ľ":{"ha":927,"x_min":71,"x_max":884,"o":"m 884 199 l 685 0 l 71 0 l 71 1042 l 209 1042 l 209 139 l 627 139 l 785 296 l 884 199 m 675 904 l 610 904 l 610 1042 l 748 1042 l 748 904 l 687 739 l 614 739 l 675 904 z "},"ľ":{"ha":927,"x_min":71,"x_max":856,"o":"m 856 139 l 856 0 l 71 0 l 71 139 l 394 139 l 394 904 l 71 904 l 71 1042 l 532 1042 l 532 139 l 856 139 m 777 904 l 711 904 l 711 1042 l 849 1042 l 849 904 l 788 739 l 715 739 l 777 904 z "},"Ŀ":{"ha":927,"x_min":71,"x_max":884,"o":"m 884 199 l 685 0 l 71 0 l 71 1042 l 209 1042 l 209 139 l 627 139 l 785 296 l 884 199 m 848 580 l 848 463 l 730 463 l 730 580 l 848 580 z "},"ŀ":{"ha":927,"x_min":71,"x_max":856,"o":"m 856 139 l 856 0 l 71 0 l 71 139 l 394 139 l 394 904 l 71 904 l 71 1042 l 532 1042 l 532 139 l 856 139 m 838 580 l 838 463 l 720 463 l 720 580 l 838 580 z "},"Ł":{"ha":927,"x_min":33,"x_max":884,"o":"m 345 511 l 345 139 l 627 139 l 785 296 l 884 199 l 685 0 l 206 0 l 206 458 l 73 408 l 33 514 l 206 580 l 206 1042 l 345 1042 l 345 633 l 601 730 l 641 623 l 345 511 z "},"ł":{"ha":927,"x_min":71,"x_max":856,"o":"m 533 515 l 533 139 l 856 139 l 856 0 l 71 0 l 71 139 l 394 139 l 394 462 l 197 387 l 157 494 l 394 583 l 394 904 l 71 904 l 71 1042 l 533 1042 l 533 636 l 726 709 l 766 603 l 533 515 z "},"Ń":{"ha":927,"x_min":72,"x_max":856,"o":"m 718 1042 l 856 1042 l 856 312 l 700 0 l 541 0 l 294 865 l 210 699 l 210 0 l 72 0 l 72 730 l 228 1042 l 387 1042 l 634 177 l 718 343 l 718 1042 m 351 1121 l 527 1352 l 692 1352 l 494 1121 l 351 1121 z "},"ń":{"ha":927,"x_min":72,"x_max":856,"o":"m 72 785 l 210 785 l 210 684 l 311 785 l 686 785 l 856 614 l 856 0 l 718 0 l 718 557 l 629 646 l 368 646 l 210 488 l 210 0 l 72 0 l 72 785 m 350 863 l 526 1094 l 691 1094 l 493 863 l 350 863 z "},"Ņ":{"ha":927,"x_min":72,"x_max":856,"o":"m 718 1042 l 856 1042 l 856 312 l 700 0 l 541 0 l 294 865 l 210 699 l 210 0 l 72 0 l 72 730 l 228 1042 l 387 1042 l 634 177 l 718 343 l 718 1042 m 460 -239 l 395 -239 l 395 -100 l 533 -100 l 533 -239 l 472 -404 l 399 -404 l 460 -239 z "},"ņ":{"ha":927,"x_min":72,"x_max":856,"o":"m 72 785 l 210 785 l 210 684 l 311 785 l 686 785 l 856 614 l 856 0 l 718 0 l 718 557 l 629 646 l 368 646 l 210 488 l 210 0 l 72 0 l 72 785 m 460 -239 l 395 -239 l 395 -100 l 533 -100 l 533 -239 l 472 -404 l 399 -404 l 460 -239 z "},"Ň":{"ha":927,"x_min":72,"x_max":856,"o":"m 718 1042 l 856 1042 l 856 312 l 700 0 l 541 0 l 294 865 l 210 699 l 210 0 l 72 0 l 72 730 l 228 1042 l 387 1042 l 634 177 l 718 343 l 718 1042 m 305 1395 l 464 1201 l 623 1395 l 764 1395 q 505 1078 686 1299 l 422 1078 q 164 1395 242 1299 l 305 1395 z "},"ň":{"ha":927,"x_min":72,"x_max":856,"o":"m 72 785 l 210 785 l 210 684 l 311 785 l 686 785 l 856 614 l 856 0 l 718 0 l 718 557 l 629 646 l 368 646 l 210 488 l 210 0 l 72 0 l 72 785 m 305 1137 l 464 943 l 623 1137 l 764 1137 q 505 821 686 1041 l 422 821 q 164 1137 242 1041 l 305 1137 z "},"ŉ":{"ha":928,"x_min":9,"x_max":825,"o":"m 149 785 l 288 785 l 288 684 l 388 785 l 655 785 l 825 614 l 825 0 l 686 0 l 686 557 l 597 646 l 446 646 l 288 488 l 288 0 l 149 0 l 149 785 m 75 904 l 9 904 l 9 1042 l 147 1042 l 147 904 l 86 739 l 14 739 l 75 904 z "},"Ŋ":{"ha":927,"x_min":72,"x_max":856,"o":"m 553 0 l 541 0 l 294 865 l 210 699 l 210 0 l 72 0 l 72 730 l 228 1042 l 387 1042 l 634 177 l 718 343 l 718 1042 l 856 1042 l 856 312 l 700 0 l 691 0 l 691 -133 l 630 -298 l 557 -298 l 618 -133 l 553 -133 l 553 0 z "},"ŋ":{"ha":927,"x_min":72,"x_max":856,"o":"m 718 557 l 629 646 l 368 646 l 210 488 l 210 0 l 72 0 l 72 785 l 210 785 l 210 684 l 311 785 l 686 785 l 856 614 l 856 -113 l 795 -278 l 722 -278 l 783 -113 l 718 -113 l 718 557 z "},"Ō":{"ha":927,"x_min":72,"x_max":856,"o":"m 210 227 l 299 139 l 629 139 l 718 227 l 718 815 l 629 904 l 299 904 l 210 815 l 210 227 m 72 873 l 241 1042 l 686 1042 l 856 873 l 856 170 l 686 0 l 241 0 l 72 170 l 72 873 m 265 1142 l 265 1252 l 663 1252 l 663 1142 l 265 1142 z "},"ō":{"ha":927,"x_min":72,"x_max":856,"o":"m 241 0 l 72 170 l 72 614 l 241 785 l 686 785 l 856 614 l 856 170 l 686 0 l 241 0 m 629 139 l 718 227 l 718 557 l 629 646 l 299 646 l 210 557 l 210 227 l 299 139 l 629 139 m 265 884 l 265 994 l 663 994 l 663 884 l 265 884 z "},"Ŏ":{"ha":927,"x_min":72,"x_max":856,"o":"m 210 227 l 299 139 l 629 139 l 718 227 l 718 815 l 629 904 l 299 904 l 210 815 l 210 227 m 72 873 l 241 1042 l 686 1042 l 856 873 l 856 170 l 686 0 l 241 0 l 72 170 l 72 873 m 292 1338 q 387 1219 292 1246 q 465 1208 422 1208 q 542 1219 506 1208 q 636 1338 636 1246 l 746 1338 q 573 1113 746 1164 q 465 1097 521 1097 q 355 1113 408 1097 q 182 1338 182 1164 l 292 1338 z "},"ŏ":{"ha":927,"x_min":72,"x_max":856,"o":"m 241 0 l 72 170 l 72 614 l 241 785 l 686 785 l 856 614 l 856 170 l 686 0 l 241 0 m 629 139 l 718 227 l 718 557 l 629 646 l 299 646 l 210 557 l 210 227 l 299 139 l 629 139 m 292 1080 q 387 961 292 988 q 465 950 422 950 q 542 961 506 950 q 636 1080 636 988 l 746 1080 q 573 855 746 907 q 465 840 521 840 q 355 855 408 840 q 182 1080 182 907 l 292 1080 z "},"Ő":{"ha":927,"x_min":72,"x_max":856,"o":"m 210 227 l 299 139 l 629 139 l 718 227 l 718 815 l 629 904 l 299 904 l 210 815 l 210 227 m 72 873 l 241 1042 l 686 1042 l 856 873 l 856 170 l 686 0 l 241 0 l 72 170 l 72 873 m 123 1121 l 299 1352 l 464 1352 l 266 1121 l 123 1121 m 464 1121 l 640 1352 l 805 1352 l 607 1121 l 464 1121 z "},"ő":{"ha":927,"x_min":72,"x_max":856,"o":"m 241 0 l 72 170 l 72 614 l 241 785 l 686 785 l 856 614 l 856 170 l 686 0 l 241 0 m 629 139 l 718 227 l 718 557 l 629 646 l 299 646 l 210 557 l 210 227 l 299 139 l 629 139 m 123 863 l 299 1094 l 464 1094 l 266 863 l 123 863 m 464 863 l 640 1094 l 805 1094 l 607 863 l 464 863 z "},"Œ":{"ha":928,"x_min":58,"x_max":907,"o":"m 433 31 l 401 0 l 228 0 l 58 170 l 58 873 l 228 1042 l 401 1042 l 433 1011 l 433 1042 l 708 1042 l 907 844 l 808 746 l 650 904 l 572 904 l 572 591 l 749 591 l 749 452 l 572 452 l 572 139 l 650 139 l 808 296 l 907 199 l 708 0 l 433 0 l 433 31 m 433 815 l 344 904 l 286 904 l 197 815 l 197 227 l 286 139 l 344 139 l 433 227 l 433 815 z "},"œ":{"ha":928,"x_min":52,"x_max":878,"o":"m 538 462 l 739 462 l 739 557 l 651 646 l 626 646 l 538 557 l 538 462 m 468 100 l 368 0 l 221 0 l 52 170 l 52 614 l 221 785 l 368 785 l 468 684 l 568 785 l 708 785 l 878 614 l 878 323 l 538 323 l 538 227 l 626 139 l 651 139 l 760 248 l 858 150 l 708 0 l 568 0 l 468 100 m 399 557 l 310 646 l 279 646 l 190 557 l 190 227 l 279 139 l 310 139 l 399 227 l 399 557 z "},"Ŕ":{"ha":927,"x_min":72,"x_max":909,"o":"m 210 591 l 629 591 l 718 679 l 718 815 l 629 904 l 210 904 l 210 591 m 701 0 l 210 389 l 210 0 l 72 0 l 72 1042 l 686 1042 l 856 873 l 856 622 l 686 452 l 349 452 l 909 0 l 701 0 m 377 1121 l 553 1352 l 718 1352 l 520 1121 l 377 1121 z "},"ŕ":{"ha":927,"x_min":72,"x_max":885,"o":"m 72 785 l 211 785 l 211 684 l 311 785 l 686 785 l 885 586 l 787 488 l 629 646 l 368 646 l 211 488 l 211 0 l 72 0 l 72 130 l 72 130 q 72 457 72 239 l 72 785 m 365 863 l 541 1094 l 706 1094 l 508 863 l 365 863 z "},"Ŗ":{"ha":927,"x_min":72,"x_max":909,"o":"m 210 591 l 629 591 l 718 679 l 718 815 l 629 904 l 210 904 l 210 591 m 701 0 l 210 389 l 210 0 l 72 0 l 72 1042 l 686 1042 l 856 873 l 856 622 l 686 452 l 349 452 l 909 0 l 701 0 m 488 -239 l 422 -239 l 422 -100 l 560 -100 l 560 -239 l 499 -404 l 427 -404 l 488 -239 z "},"ŗ":{"ha":927,"x_min":72,"x_max":885,"o":"m 72 785 l 211 785 l 211 684 l 311 785 l 686 785 l 885 586 l 787 488 l 629 646 l 368 646 l 211 488 l 211 0 l 72 0 l 72 130 l 72 130 q 72 457 72 239 l 72 785 m 475 -239 l 409 -239 l 409 -100 l 547 -100 l 547 -239 l 486 -404 l 414 -404 l 475 -239 z "},"Ř":{"ha":927,"x_min":72,"x_max":909,"o":"m 210 591 l 629 591 l 718 679 l 718 815 l 629 904 l 210 904 l 210 591 m 701 0 l 210 389 l 210 0 l 72 0 l 72 1042 l 686 1042 l 856 873 l 856 622 l 686 452 l 349 452 l 909 0 l 701 0 m 332 1395 l 491 1201 l 650 1395 l 791 1395 q 532 1078 713 1299 l 450 1078 q 191 1395 269 1299 l 332 1395 z "},"ř":{"ha":927,"x_min":72,"x_max":885,"o":"m 72 785 l 211 785 l 211 684 l 311 785 l 686 785 l 885 586 l 787 488 l 629 646 l 368 646 l 211 488 l 211 0 l 72 0 l 72 130 l 72 130 q 72 457 72 239 l 72 785 m 319 1137 l 478 943 l 637 1137 l 778 1137 q 519 821 700 1041 l 437 821 q 178 1137 256 1041 l 319 1137 z "},"Ś":{"ha":927,"x_min":72,"x_max":856,"o":"m 718 702 l 718 770 l 622 904 l 306 904 l 210 770 l 210 724 l 306 591 l 693 591 l 856 362 l 856 229 l 693 0 l 235 0 l 72 229 l 72 340 l 210 340 l 210 272 l 306 139 l 622 139 l 718 272 l 718 319 l 622 452 l 235 452 l 72 680 l 72 814 l 235 1042 l 693 1042 l 856 814 l 856 702 l 718 702 m 351 1121 l 527 1352 l 692 1352 l 494 1121 l 351 1121 z "},"ś":{"ha":927,"x_min":72,"x_max":856,"o":"m 718 522 l 718 557 l 629 646 l 299 646 l 210 557 l 210 550 l 299 462 l 686 462 l 856 292 l 856 170 l 686 0 l 241 0 l 72 170 l 72 263 l 210 263 l 210 227 l 299 139 l 629 139 l 718 227 l 718 235 l 629 323 l 241 323 l 72 492 l 72 614 l 241 785 l 686 785 l 856 614 l 856 522 l 718 522 m 351 863 l 527 1094 l 692 1094 l 494 863 l 351 863 z "},"Ŝ":{"ha":927,"x_min":72,"x_max":856,"o":"m 718 702 l 718 770 l 622 904 l 306 904 l 210 770 l 210 724 l 306 591 l 693 591 l 856 362 l 856 229 l 693 0 l 235 0 l 72 229 l 72 340 l 210 340 l 210 272 l 306 139 l 622 139 l 718 272 l 718 319 l 622 452 l 235 452 l 72 680 l 72 814 l 235 1042 l 693 1042 l 856 814 l 856 702 l 718 702 m 164 1105 q 422 1422 242 1202 l 505 1422 q 764 1105 686 1202 l 623 1105 l 464 1299 l 305 1105 l 164 1105 z "},"ŝ":{"ha":927,"x_min":72,"x_max":856,"o":"m 718 522 l 718 557 l 629 646 l 299 646 l 210 557 l 210 550 l 299 462 l 686 462 l 856 292 l 856 170 l 686 0 l 241 0 l 72 170 l 72 263 l 210 263 l 210 227 l 299 139 l 629 139 l 718 227 l 718 235 l 629 323 l 241 323 l 72 492 l 72 614 l 241 785 l 686 785 l 856 614 l 856 522 l 718 522 m 164 848 q 422 1164 242 944 l 505 1164 q 764 848 686 944 l 623 848 l 464 1042 l 305 848 l 164 848 z "},"Ş":{"ha":927,"x_min":72,"x_max":856,"o":"m 412 0 l 235 0 l 72 229 l 72 340 l 210 340 l 210 272 l 306 139 l 622 139 l 718 272 l 718 319 l 622 452 l 235 452 l 72 680 l 72 814 l 235 1042 l 693 1042 l 856 814 l 856 702 l 718 702 l 718 770 l 622 904 l 306 904 l 210 770 l 210 724 l 306 591 l 693 591 l 856 362 l 856 229 l 693 0 l 516 0 l 516 -34 q 566 -66 544 -45 q 608 -168 608 -108 q 566 -269 608 -227 q 465 -311 524 -311 q 363 -269 405 -311 q 321 -168 321 -227 l 425 -168 q 437 -195 425 -184 q 465 -206 448 -206 q 492 -195 481 -206 q 503 -168 503 -184 q 492 -140 503 -151 q 465 -128 481 -128 l 412 -128 l 412 0 z "},"ş":{"ha":927,"x_min":72,"x_max":856,"o":"m 412 0 l 241 0 l 72 170 l 72 263 l 210 263 l 210 227 l 299 139 l 629 139 l 718 227 l 718 235 l 629 323 l 241 323 l 72 492 l 72 614 l 241 785 l 686 785 l 856 614 l 856 522 l 718 522 l 718 557 l 629 646 l 299 646 l 210 557 l 210 550 l 299 462 l 686 462 l 856 292 l 856 170 l 686 0 l 516 0 l 516 -27 q 565 -59 544 -38 q 607 -160 607 -101 q 565 -261 607 -220 q 464 -303 523 -303 q 363 -261 404 -303 q 321 -160 321 -220 l 425 -160 q 436 -188 425 -176 q 464 -199 448 -199 q 492 -188 480 -199 q 503 -160 503 -176 q 492 -132 503 -144 q 464 -121 480 -121 l 412 -121 l 412 0 z "},"Š":{"ha":927,"x_min":72,"x_max":856,"o":"m 718 702 l 718 770 l 622 904 l 306 904 l 210 770 l 210 724 l 306 591 l 693 591 l 856 362 l 856 229 l 693 0 l 235 0 l 72 229 l 72 340 l 210 340 l 210 272 l 306 139 l 622 139 l 718 272 l 718 319 l 622 452 l 235 452 l 72 680 l 72 814 l 235 1042 l 693 1042 l 856 814 l 856 702 l 718 702 m 305 1395 l 464 1201 l 623 1395 l 764 1395 q 505 1078 686 1299 l 422 1078 q 164 1395 242 1299 l 305 1395 z "},"š":{"ha":927,"x_min":72,"x_max":856,"o":"m 718 522 l 718 557 l 629 646 l 299 646 l 210 557 l 210 550 l 299 462 l 686 462 l 856 292 l 856 170 l 686 0 l 241 0 l 72 170 l 72 263 l 210 263 l 210 227 l 299 139 l 629 139 l 718 227 l 718 235 l 629 323 l 241 323 l 72 492 l 72 614 l 241 785 l 686 785 l 856 614 l 856 522 l 718 522 m 305 1137 l 464 943 l 623 1137 l 764 1137 q 505 821 686 1041 l 422 821 q 164 1137 242 1041 l 305 1137 z "},"Ţ":{"ha":927,"x_min":43,"x_max":884,"o":"m 43 844 l 241 1042 l 686 1042 l 884 844 l 786 746 l 629 904 l 533 904 l 533 0 l 394 0 l 394 904 l 298 904 l 141 746 l 43 844 m 425 -227 q 436 -255 425 -243 q 464 -267 448 -267 q 492 -255 480 -267 q 503 -227 503 -243 q 492 -199 503 -211 l 492 -199 q 464 -189 480 -189 l 412 -189 l 412 6 l 516 6 l 516 -94 q 565 -126 544 -105 l 565 -126 q 607 -227 607 -168 q 565 -328 607 -287 q 464 -370 523 -370 q 363 -328 404 -370 q 321 -227 321 -287 l 425 -227 z "},"ţ":{"ha":927,"x_min":72,"x_max":885,"o":"m 72 646 l 72 785 l 266 785 l 266 1042 l 404 1042 l 404 785 l 856 785 l 856 646 l 404 646 l 404 227 l 493 139 l 629 139 l 787 296 l 885 199 l 686 0 l 435 0 l 266 170 l 266 646 l 72 646 m 524 -227 q 535 -255 524 -243 q 563 -267 547 -267 q 591 -255 579 -267 q 602 -227 602 -243 q 591 -199 602 -211 l 591 -199 q 563 -189 579 -189 l 511 -189 l 511 6 l 615 6 l 615 -94 q 664 -126 643 -105 l 664 -126 q 706 -227 706 -168 q 664 -328 706 -287 q 563 -370 622 -370 q 462 -328 503 -370 q 420 -227 420 -287 l 524 -227 z "},"Ť":{"ha":927,"x_min":43,"x_max":884,"o":"m 43 844 l 241 1042 l 686 1042 l 884 844 l 786 746 l 629 904 l 533 904 l 533 0 l 394 0 l 394 904 l 298 904 l 141 746 l 43 844 m 305 1395 l 464 1201 l 623 1395 l 764 1395 q 505 1078 686 1299 l 422 1078 q 164 1395 242 1299 l 305 1395 z "},"ť":{"ha":928,"x_min":72,"x_max":894,"o":"m 72 646 l 72 785 l 266 785 l 266 1042 l 404 1042 l 404 785 l 720 785 l 720 646 l 404 646 l 404 227 l 493 139 l 561 139 l 719 296 l 817 199 l 618 0 l 435 0 l 266 170 l 266 646 l 72 646 m 821 904 l 755 904 l 755 1042 l 894 1042 l 894 904 l 833 739 l 760 739 l 821 904 z "},"Ŧ":{"ha":927,"x_min":45,"x_max":887,"o":"m 397 522 l 397 904 l 301 904 l 144 746 l 45 844 l 244 1042 l 688 1042 l 887 844 l 789 746 l 631 904 l 536 904 l 536 522 l 754 522 l 754 399 l 536 399 l 536 0 l 397 0 l 397 399 l 178 399 l 178 522 l 397 522 z "},"ŧ":{"ha":927,"x_min":62,"x_max":875,"o":"m 256 522 l 256 646 l 62 646 l 62 785 l 256 785 l 256 1042 l 394 1042 l 394 785 l 846 785 l 846 646 l 394 646 l 394 522 l 644 522 l 644 399 l 394 399 l 394 227 l 483 139 l 618 139 l 777 296 l 875 199 l 676 0 l 425 0 l 256 170 l 256 399 l 66 399 l 66 522 l 256 522 z "},"Ũ":{"ha":927,"x_min":72,"x_max":856,"o":"m 72 1042 l 210 1042 l 210 227 l 299 139 l 629 139 l 718 227 l 718 1042 l 856 1042 l 856 170 l 686 0 l 241 0 l 72 170 l 72 1042 m 795 1333 l 795 1306 q 734 1155 789 1211 q 586 1097 679 1097 q 408 1200 492 1097 q 337 1253 365 1253 q 260 1228 281 1254 q 242 1152 242 1204 l 242 1126 l 132 1126 l 132 1152 q 174 1295 132 1242 q 338 1363 228 1364 q 493 1270 417 1362 q 586 1207 544 1207 q 656 1232 632 1207 q 686 1312 683 1258 l 686 1333 l 795 1333 z "},"ũ":{"ha":927,"x_min":72,"x_max":856,"o":"m 856 0 l 718 0 l 718 100 l 617 0 l 241 0 l 72 170 l 72 785 l 210 785 l 210 227 l 299 139 l 559 139 l 718 296 l 718 785 l 856 785 l 856 0 m 795 1075 l 795 1048 q 734 897 789 953 q 586 840 679 840 q 408 943 492 840 q 337 996 365 996 q 260 970 281 996 q 242 895 242 947 l 242 868 l 132 868 l 132 895 q 174 1038 132 984 q 338 1105 228 1106 q 493 1012 417 1105 q 586 949 544 949 q 656 974 632 949 q 686 1054 683 1000 l 686 1075 l 795 1075 z "},"Ū":{"ha":927,"x_min":72,"x_max":856,"o":"m 72 1042 l 210 1042 l 210 227 l 299 139 l 629 139 l 718 227 l 718 1042 l 856 1042 l 856 170 l 686 0 l 241 0 l 72 170 l 72 1042 m 265 1142 l 265 1252 l 663 1252 l 663 1142 l 265 1142 z "},"ū":{"ha":927,"x_min":72,"x_max":856,"o":"m 856 0 l 718 0 l 718 100 l 617 0 l 241 0 l 72 170 l 72 785 l 210 785 l 210 227 l 299 139 l 559 139 l 718 296 l 718 785 l 856 785 l 856 0 m 265 884 l 265 994 l 663 994 l 663 884 l 265 884 z "},"Ŭ":{"ha":927,"x_min":72,"x_max":856,"o":"m 72 1042 l 210 1042 l 210 227 l 299 139 l 629 139 l 718 227 l 718 1042 l 856 1042 l 856 170 l 686 0 l 241 0 l 72 170 l 72 1042 m 292 1338 q 387 1219 292 1246 q 465 1208 422 1208 q 542 1219 506 1208 q 636 1338 636 1246 l 746 1338 q 573 1113 746 1164 q 465 1097 521 1097 q 355 1113 408 1097 q 182 1338 182 1164 l 292 1338 z "},"ŭ":{"ha":927,"x_min":72,"x_max":856,"o":"m 856 0 l 718 0 l 718 100 l 617 0 l 241 0 l 72 170 l 72 785 l 210 785 l 210 227 l 299 139 l 559 139 l 718 296 l 718 785 l 856 785 l 856 0 m 292 1080 q 387 961 292 988 q 465 950 422 950 q 542 961 506 950 q 636 1080 636 988 l 746 1080 q 573 855 746 907 q 465 840 521 840 q 355 855 408 840 q 182 1080 182 907 l 292 1080 z "},"Ů":{"ha":927,"x_min":72,"x_max":856,"o":"m 72 1042 l 210 1042 l 210 227 l 299 139 l 629 139 l 718 227 l 718 1042 l 856 1042 l 856 170 l 686 0 l 241 0 l 72 170 l 72 1042 m 464 1361 q 576 1315 530 1361 q 622 1203 622 1269 q 576 1091 622 1137 q 464 1044 530 1044 q 352 1091 399 1044 q 306 1203 306 1137 q 352 1315 306 1269 q 464 1361 399 1361 m 464 1263 q 421 1246 439 1263 q 404 1203 404 1228 q 421 1160 404 1178 q 464 1143 439 1143 q 507 1160 489 1143 q 524 1203 524 1178 q 507 1246 524 1228 q 464 1263 489 1263 z "},"ů":{"ha":927,"x_min":72,"x_max":856,"o":"m 856 0 l 718 0 l 718 100 l 617 0 l 241 0 l 72 170 l 72 785 l 210 785 l 210 227 l 299 139 l 559 139 l 718 296 l 718 785 l 856 785 l 856 0 m 464 1103 q 576 1057 530 1103 q 622 945 622 1011 q 576 833 622 880 q 464 787 530 787 q 352 833 399 787 q 306 945 306 880 q 352 1057 306 1011 q 464 1103 399 1103 m 464 1006 q 421 988 439 1006 q 404 945 404 970 q 421 903 404 920 q 464 885 439 885 q 507 903 489 885 q 524 945 524 920 q 507 988 524 970 q 464 1006 489 1006 z "},"Ű":{"ha":927,"x_min":72,"x_max":856,"o":"m 72 1042 l 210 1042 l 210 227 l 299 139 l 629 139 l 718 227 l 718 1042 l 856 1042 l 856 170 l 686 0 l 241 0 l 72 170 l 72 1042 m 123 1121 l 299 1352 l 464 1352 l 266 1121 l 123 1121 m 464 1121 l 640 1352 l 805 1352 l 607 1121 l 464 1121 z "},"ű":{"ha":927,"x_min":72,"x_max":856,"o":"m 856 0 l 718 0 l 718 100 l 617 0 l 241 0 l 72 170 l 72 785 l 210 785 l 210 227 l 299 139 l 559 139 l 718 296 l 718 785 l 856 785 l 856 0 m 123 863 l 299 1094 l 464 1094 l 266 863 l 123 863 m 464 863 l 640 1094 l 805 1094 l 607 863 l 464 863 z "},"Ų":{"ha":927,"x_min":72,"x_max":856,"o":"m 477 0 l 241 0 l 72 170 l 72 1042 l 210 1042 l 210 227 l 299 139 l 629 139 l 718 227 l 718 1042 l 856 1042 l 856 170 l 686 0 l 631 0 q 595 -15 610 0 q 579 -52 579 -30 q 595 -88 579 -73 q 631 -104 610 -104 l 686 -104 l 686 -214 l 631 -214 q 517 -166 564 -214 q 469 -52 469 -119 q 477 0 469 -24 z "},"ų":{"ha":927,"x_min":72,"x_max":856,"o":"m 856 -87 l 801 -87 q 764 -102 779 -87 q 749 -139 749 -118 q 764 -176 749 -161 q 801 -191 779 -191 l 856 -191 l 856 -301 l 801 -301 q 686 -254 734 -301 q 639 -139 639 -206 q 686 -25 639 -73 q 718 0 701 -10 l 718 100 l 617 0 l 241 0 l 72 170 l 72 785 l 210 785 l 210 227 l 299 139 l 559 139 l 718 296 l 718 785 l 856 785 l 856 -87 z "},"Ŵ":{"ha":927,"x_min":72,"x_max":856,"o":"m 395 1042 l 533 1042 l 533 343 l 625 159 l 718 343 l 718 1042 l 856 1042 l 856 312 l 700 0 l 551 0 l 464 173 l 378 0 l 228 0 l 72 312 l 72 1042 l 210 1042 l 210 343 l 302 159 l 395 343 l 395 1042 m 164 1105 q 422 1422 242 1202 l 505 1422 q 764 1105 686 1202 l 623 1105 l 464 1299 l 305 1105 l 164 1105 z "},"ŵ":{"ha":927,"x_min":72,"x_max":856,"o":"m 533 227 l 622 139 l 629 139 l 718 227 l 718 785 l 856 785 l 856 170 l 686 0 l 564 0 l 464 100 l 363 0 l 241 0 l 72 170 l 72 785 l 210 785 l 210 227 l 299 139 l 306 139 l 395 227 l 395 785 l 533 785 l 533 227 m 164 848 q 422 1164 242 944 l 505 1164 q 764 848 686 944 l 623 848 l 464 1042 l 305 848 l 164 848 z "},"Ŷ":{"ha":927,"x_min":42,"x_max":855,"o":"m 716 1042 l 855 1042 l 855 170 l 685 0 l 241 0 l 42 199 l 140 296 l 298 139 l 628 139 l 716 227 l 716 418 l 685 387 l 240 387 l 71 557 l 71 1042 l 209 1042 l 209 614 l 298 526 l 627 526 l 672 570 l 716 615 l 716 1042 m 149 1105 q 407 1422 227 1202 l 490 1422 q 748 1105 670 1202 l 607 1105 l 448 1299 l 290 1105 l 149 1105 z "},"ŷ":{"ha":927,"x_min":42,"x_max":855,"o":"m 716 785 l 855 785 l 855 -88 l 685 -258 l 241 -258 l 42 -60 l 140 39 l 298 -119 l 628 -119 l 716 -31 l 716 170 l 616 69 l 241 69 l 71 239 l 71 785 l 210 785 l 210 296 l 298 208 l 559 208 l 694 344 l 716 366 l 716 785 m 149 848 q 407 1164 227 944 l 490 1164 q 748 848 670 944 l 607 848 l 448 1042 l 290 848 l 149 848 z "},"Ÿ":{"ha":927,"x_min":42,"x_max":855,"o":"m 716 1042 l 855 1042 l 855 170 l 685 0 l 241 0 l 42 199 l 140 296 l 298 139 l 628 139 l 716 227 l 716 418 l 685 387 l 240 387 l 71 557 l 71 1042 l 209 1042 l 209 614 l 298 526 l 627 526 l 672 570 l 716 615 l 716 1042 m 344 1259 l 344 1121 l 205 1121 l 205 1259 l 344 1259 m 692 1259 l 692 1121 l 553 1121 l 553 1259 l 692 1259 z "},"Ź":{"ha":927,"x_min":45,"x_max":882,"o":"m 72 904 l 72 1042 l 689 1042 l 882 820 l 237 213 l 302 139 l 856 139 l 856 0 l 239 0 l 45 223 l 691 829 l 627 904 l 72 904 m 351 1121 l 527 1352 l 692 1352 l 494 1121 l 351 1121 z "},"ź":{"ha":927,"x_min":29,"x_max":898,"o":"m 71 646 l 71 785 l 686 785 l 898 572 l 252 185 l 298 139 l 856 139 l 856 0 l 241 0 l 29 212 l 675 600 l 629 646 l 71 646 m 350 863 l 526 1094 l 691 1094 l 493 863 l 350 863 z "},"Ż":{"ha":927,"x_min":45,"x_max":882,"o":"m 72 904 l 72 1042 l 689 1042 l 882 820 l 237 213 l 302 139 l 856 139 l 856 0 l 239 0 l 45 223 l 691 829 l 627 904 l 72 904 m 521 1268 l 521 1155 l 408 1155 l 408 1268 l 521 1268 z "},"ż":{"ha":927,"x_min":29,"x_max":898,"o":"m 71 646 l 71 785 l 686 785 l 898 572 l 252 185 l 298 139 l 856 139 l 856 0 l 241 0 l 29 212 l 675 600 l 629 646 l 71 646 m 520 1010 l 520 897 l 407 897 l 407 1010 l 520 1010 z "},"Ž":{"ha":927,"x_min":45,"x_max":882,"o":"m 72 904 l 72 1042 l 689 1042 l 882 820 l 237 213 l 302 139 l 856 139 l 856 0 l 239 0 l 45 223 l 691 829 l 627 904 l 72 904 m 305 1395 l 464 1201 l 623 1395 l 764 1395 q 505 1078 686 1299 l 422 1078 q 164 1395 242 1299 l 305 1395 z "},"ž":{"ha":927,"x_min":29,"x_max":898,"o":"m 71 646 l 71 785 l 686 785 l 898 572 l 252 185 l 298 139 l 856 139 l 856 0 l 241 0 l 29 212 l 675 600 l 629 646 l 71 646 m 305 1137 l 464 943 l 623 1137 l 764 1137 q 505 821 686 1041 l 422 821 q 164 1137 242 1041 l 305 1137 z "},"ſ":{"ha":927,"x_min":72,"x_max":856,"o":"m 372 139 l 572 139 l 572 0 l 72 0 l 72 139 l 233 139 l 233 873 l 403 1042 l 686 1042 l 856 873 l 856 646 l 718 646 l 718 815 l 629 904 l 460 904 l 372 815 l 372 139 z "},"̕":{"ha":927,"x_min":394,"x_max":532,"o":"m 460 904 l 394 904 l 394 1042 l 532 1042 l 532 904 l 471 739 l 399 739 l 460 904 z "},"̦":{"ha":927,"x_min":395,"x_max":533,"o":"m 460 -239 l 395 -239 l 395 -100 l 533 -100 l 533 -239 l 472 -404 l 399 -404 l 460 -239 z "},"¢":{"ha":927,"x_min":45,"x_max":883,"o":"m 770 1002 l 883 922 l 843 865 l 715 687 l 820 583 l 722 485 l 634 573 l 414 264 l 564 264 l 673 374 l 722 422 l 820 324 l 622 126 l 315 126 l 197 -39 l 157 -95 l 45 -15 l 85 42 l 212 220 l 136 296 l 136 611 l 306 781 l 613 781 l 730 945 l 770 1002 m 514 642 l 363 642 l 275 554 l 275 353 l 294 334 l 514 642 z "},"¤":{"ha":927,"x_min":126,"x_max":800,"o":"m 463 688 q 608 648 541 688 l 703 741 l 800 644 l 706 550 q 746 405 746 483 q 706 260 746 326 l 800 166 l 703 68 l 608 162 q 463 121 541 121 q 318 162 385 121 l 224 68 l 126 166 l 220 260 q 180 405 180 327 q 220 550 180 483 l 126 644 l 224 741 l 318 648 q 463 688 385 688 m 565 507 q 463 549 523 549 q 366 512 407 549 l 356 502 q 319 405 319 460 q 356 308 319 349 l 366 298 q 463 260 407 260 q 565 302 523 260 q 607 405 607 345 q 565 507 607 465 z "},"²":{"ha":927,"x_min":197,"x_max":742,"o":"m 332 500 l 742 500 l 742 390 l 197 390 l 197 564 l 553 720 l 616 803 l 616 863 l 562 932 l 376 932 l 322 863 l 322 770 l 197 770 l 197 896 l 311 1042 l 628 1042 l 742 896 l 742 769 l 637 635 l 332 500 z "},"³":{"ha":927,"x_min":209,"x_max":752,"o":"m 309 601 l 387 500 l 572 500 l 627 570 l 627 591 l 572 661 l 344 661 l 344 772 l 572 772 l 627 842 l 627 863 l 572 932 l 387 932 l 313 837 l 212 903 l 321 1042 l 638 1042 l 752 896 l 752 808 l 681 716 l 752 625 l 752 537 l 638 390 l 321 390 l 209 535 l 309 601 z "},"ª":{"ha":927,"x_min":190,"x_max":735,"o":"m 610 463 l 531 390 l 394 390 l 190 578 l 190 854 l 394 1042 l 531 1042 l 610 970 l 610 1042 l 735 1042 l 735 387 l 610 387 l 610 463 m 610 810 l 477 932 l 447 932 l 315 810 l 315 622 l 447 500 l 477 500 l 610 622 l 610 810 z "},"«":{"ha":1228,"x_min":292,"x_max":936,"o":"m 524 614 l 635 531 l 466 307 l 635 83 l 524 0 l 292 307 l 483 559 l 524 614 m 825 614 l 936 531 l 767 307 l 936 83 l 825 0 l 593 307 l 784 559 l 825 614 z "},"¬":{"ha":927,"x_min":115,"x_max":812,"o":"m 674 521 l 115 521 l 115 659 l 812 658 l 812 241 l 674 241 l 674 521 z "},"¹":{"ha":927,"x_min":190,"x_max":734,"o":"m 734 500 l 734 390 l 190 390 l 190 500 l 399 500 l 399 932 l 190 932 l 190 1042 l 525 1042 l 524 500 l 734 500 z "},"º":{"ha":928,"x_min":190,"x_max":735,"o":"m 315 622 l 447 500 l 477 500 l 610 622 l 610 810 l 477 932 l 447 932 l 315 810 l 315 622 m 190 854 l 394 1042 l 531 1042 l 735 854 l 735 578 l 531 390 l 394 390 l 190 578 l 190 854 z "},"»":{"ha":1228,"x_min":292,"x_max":936,"o":"m 292 531 l 403 614 l 635 307 l 403 0 l 292 83 l 461 307 l 334 476 l 292 531 m 593 531 l 704 614 l 936 307 l 704 0 l 593 83 l 762 307 l 635 476 l 593 531 z "},"¼":{"ha":1678,"x_min":122,"x_max":1573,"o":"m 667 500 l 667 390 l 122 390 l 122 500 l 332 500 l 332 932 l 122 932 l 122 1042 l 457 1042 l 456 500 l 667 500 m 1329 1042 q 970 540 1216 882 q 584 0 663 111 l 499 0 l 1244 1042 l 1329 1042 m 1280 304 l 1280 433 l 1191 304 l 1280 304 m 1034 272 l 1308 652 l 1406 652 l 1406 304 l 1573 304 l 1573 194 l 1406 194 l 1406 111 l 1573 111 l 1573 0 l 1108 0 l 1108 111 l 1280 111 l 1280 194 l 1034 194 l 1034 272 z "},"½":{"ha":1782,"x_min":122,"x_max":1657,"o":"m 667 500 l 667 390 l 122 390 l 122 500 l 332 500 l 332 932 l 122 932 l 122 1042 l 457 1042 l 456 500 l 667 500 m 1329 1042 q 970 540 1216 882 q 584 0 663 111 l 499 0 l 1244 1042 l 1329 1042 m 1246 111 l 1657 111 l 1657 0 l 1112 0 l 1112 174 l 1468 330 l 1531 413 l 1531 473 l 1477 543 l 1291 543 l 1237 473 l 1237 380 l 1112 380 l 1112 506 l 1225 652 l 1543 652 l 1657 506 l 1657 379 l 1552 245 l 1246 111 z "},"¾":{"ha":1611,"x_min":73,"x_max":1506,"o":"m 174 601 l 251 500 l 437 500 l 491 570 l 491 591 l 437 661 l 208 661 l 208 772 l 437 772 l 491 842 l 491 863 l 437 932 l 251 932 l 177 837 l 77 903 l 185 1042 l 503 1042 l 616 896 l 616 808 l 545 716 l 616 625 l 616 537 l 503 390 l 185 390 l 73 535 l 174 601 m 1207 1042 q 848 540 1094 882 q 462 0 541 111 l 377 0 l 1122 1042 l 1207 1042 m 1213 304 l 1213 433 l 1123 304 l 1213 304 m 966 271 l 1240 652 l 1338 652 l 1338 304 l 1506 304 l 1506 193 l 1338 193 l 1338 111 l 1506 111 l 1506 0 l 1040 0 l 1040 111 l 1213 111 l 1213 193 l 966 193 l 966 271 z "},"⁰":{"ha":927,"x_min":190,"x_max":735,"o":"m 315 622 l 447 500 l 477 500 l 610 622 l 610 810 l 477 932 l 447 932 l 315 810 l 315 622 m 190 854 l 394 1042 l 531 1042 l 735 854 l 735 578 l 531 390 l 394 390 l 190 578 l 190 854 z "},"ⁱ":{"ha":927,"x_min":197,"x_max":742,"o":"m 742 500 l 742 390 l 197 390 l 197 500 l 406 500 l 406 777 l 197 777 l 197 888 l 532 888 l 532 500 l 742 500 m 532 1042 l 532 932 l 406 932 l 406 1042 l 532 1042 z "},"⁴":{"ha":927,"x_min":186,"x_max":726,"o":"m 433 694 l 433 823 l 344 694 l 433 694 m 186 661 l 461 1042 l 559 1042 l 559 694 l 726 694 l 726 583 l 559 583 l 559 500 l 726 500 l 726 390 l 261 390 l 261 500 l 433 500 l 433 583 l 186 583 l 186 661 z "},"⁵":{"ha":927,"x_min":172,"x_max":739,"o":"m 659 1042 l 659 932 l 361 932 l 361 810 l 625 810 l 739 663 l 739 537 l 625 390 l 308 390 l 172 566 l 272 632 l 374 500 l 559 500 l 614 570 l 614 630 l 559 700 l 236 700 l 236 1042 l 659 1042 z "},"⁶":{"ha":927,"x_min":197,"x_max":741,"o":"m 376 700 l 322 629 l 322 570 l 376 500 l 562 500 l 616 570 l 616 630 l 562 700 l 376 700 m 641 1042 l 462 810 l 628 810 l 741 663 l 741 537 l 628 390 l 310 390 l 197 537 l 197 663 l 490 1042 l 641 1042 z "},"⁷":{"ha":927,"x_min":158,"x_max":725,"o":"m 332 390 l 600 800 l 600 862 l 546 932 l 360 932 l 258 800 l 158 867 l 294 1042 l 612 1042 l 725 896 l 725 772 l 477 390 l 332 390 z "},"⁸":{"ha":927,"x_min":190,"x_max":735,"o":"m 555 772 l 610 842 l 610 863 l 555 932 l 370 932 l 315 863 l 315 842 l 370 772 l 555 772 m 190 808 l 190 896 l 304 1042 l 621 1042 l 735 896 l 735 808 l 664 716 l 735 625 l 735 537 l 621 390 l 304 390 l 190 537 l 190 625 l 261 716 l 190 808 m 370 661 l 315 591 l 315 570 l 370 500 l 555 500 l 610 570 l 610 591 l 555 661 l 370 661 z "},"⁹":{"ha":927,"x_min":190,"x_max":734,"o":"m 610 862 l 555 932 l 370 932 l 315 862 l 315 802 l 370 732 l 555 732 l 610 802 l 610 862 m 290 390 l 470 622 l 303 622 l 190 769 l 190 896 l 303 1042 l 621 1042 l 734 896 l 734 769 l 441 390 l 290 390 z "},"⁺":{"ha":927,"x_min":190,"x_max":735,"o":"m 190 607 l 190 717 l 399 717 l 399 911 l 525 911 l 525 717 l 735 717 l 735 607 l 525 607 l 525 413 l 399 413 l 399 607 l 190 607 z "},"⁻":{"ha":927,"x_min":326,"x_max":694,"o":"m 326 380 l 326 491 l 694 491 l 694 380 l 326 380 z "},"⁼":{"ha":927,"x_min":267,"x_max":711,"o":"m 267 387 l 267 496 l 711 496 l 711 387 l 267 387 m 267 591 l 267 700 l 711 700 l 711 591 l 267 591 z "},"⁽":{"ha":927,"x_min":190,"x_max":735,"o":"m 735 1042 l 735 932 l 489 932 l 315 772 l 315 661 l 489 500 l 735 500 l 735 390 l 435 390 l 190 617 l 190 816 l 435 1042 l 735 1042 z "},"⁾":{"ha":927,"x_min":190,"x_max":735,"o":"m 190 932 l 190 1042 l 489 1042 l 735 816 l 735 617 l 489 390 l 190 390 l 190 500 l 435 500 l 610 661 l 610 772 l 435 932 l 190 932 z "},"ⁿ":{"ha":927,"x_min":190,"x_max":735,"o":"m 190 1042 l 315 1042 l 315 1006 l 355 1042 l 615 1042 l 735 932 l 735 545 l 610 545 l 610 888 l 562 932 l 408 932 l 315 846 l 315 545 l 190 545 l 190 1042 z "},"₀":{"ha":927,"x_min":190,"x_max":735,"o":"m 315 -94 l 447 -216 l 477 -216 l 610 -94 l 610 94 l 477 216 l 447 216 l 315 94 l 315 -94 m 190 138 l 394 326 l 531 326 l 735 138 l 735 -138 l 531 -326 l 394 -326 l 190 -138 l 190 138 z "},"₁":{"ha":927,"x_min":190,"x_max":734,"o":"m 734 -216 l 734 -326 l 190 -326 l 190 -216 l 399 -216 l 399 216 l 190 216 l 190 326 l 525 326 l 524 -216 l 734 -216 z "},"₂":{"ha":927,"x_min":197,"x_max":742,"o":"m 332 -216 l 742 -216 l 742 -326 l 197 -326 l 197 -152 l 553 4 l 616 87 l 616 146 l 562 216 l 376 216 l 322 146 l 322 54 l 197 54 l 197 180 l 311 326 l 628 326 l 742 180 l 742 53 l 637 -81 l 332 -216 z "},"₃":{"ha":927,"x_min":209,"x_max":752,"o":"m 309 -115 l 387 -216 l 572 -216 l 627 -146 l 627 -125 l 572 -55 l 344 -55 l 344 56 l 572 56 l 627 125 l 627 146 l 572 216 l 387 216 l 313 121 l 212 187 l 321 326 l 638 326 l 752 180 l 752 92 l 681 0 l 752 -92 l 752 -179 l 638 -326 l 321 -326 l 209 -181 l 309 -115 z "},"₄":{"ha":927,"x_min":186,"x_max":726,"o":"m 433 -22 l 433 106 l 344 -22 l 433 -22 m 186 -55 l 461 326 l 559 326 l 559 -22 l 726 -22 l 726 -133 l 559 -133 l 559 -216 l 726 -216 l 726 -326 l 261 -326 l 261 -216 l 433 -216 l 433 -133 l 186 -133 l 186 -55 z "},"₅":{"ha":927,"x_min":172,"x_max":739,"o":"m 659 326 l 659 216 l 361 216 l 361 94 l 625 94 l 739 -53 l 739 -179 l 625 -326 l 308 -326 l 172 -150 l 272 -84 l 374 -216 l 559 -216 l 614 -146 l 614 -86 l 559 -16 l 236 -16 l 236 326 l 659 326 z "},"₆":{"ha":927,"x_min":197,"x_max":741,"o":"m 376 -16 l 322 -87 l 322 -146 l 376 -216 l 562 -216 l 616 -146 l 616 -86 l 562 -16 l 376 -16 m 641 326 l 462 94 l 628 94 l 741 -53 l 741 -179 l 628 -326 l 310 -326 l 197 -179 l 197 -54 l 490 326 l 641 326 z "},"₇":{"ha":927,"x_min":158,"x_max":725,"o":"m 332 -326 l 600 84 l 600 146 l 546 216 l 360 216 l 258 84 l 158 151 l 294 326 l 612 326 l 725 180 l 725 56 l 477 -326 l 332 -326 z "},"₈":{"ha":927,"x_min":190,"x_max":735,"o":"m 555 56 l 610 125 l 610 146 l 555 216 l 370 216 l 315 146 l 315 125 l 370 56 l 555 56 m 190 92 l 190 180 l 304 326 l 621 326 l 735 180 l 735 92 l 664 0 l 735 -92 l 735 -179 l 621 -326 l 304 -326 l 190 -179 l 190 -92 l 261 0 l 190 92 m 370 -55 l 315 -125 l 315 -146 l 370 -216 l 555 -216 l 610 -146 l 610 -125 l 555 -55 l 370 -55 z "},"₉":{"ha":927,"x_min":190,"x_max":734,"o":"m 610 146 l 555 216 l 370 216 l 315 146 l 315 86 l 370 16 l 555 16 l 610 86 l 610 146 m 290 -326 l 470 -94 l 303 -94 l 190 53 l 190 180 l 303 326 l 621 326 l 734 180 l 734 53 l 441 -326 l 290 -326 z "},"₊":{"ha":927,"x_min":190,"x_max":735,"o":"m 190 88 l 190 198 l 399 198 l 399 392 l 525 392 l 525 198 l 735 198 l 735 88 l 525 88 l 525 -106 l 399 -106 l 399 88 l 190 88 z "},"₋":{"ha":927,"x_min":326,"x_max":694,"o":"m 326 -41 l 326 69 l 694 69 l 694 -41 l 326 -41 z "},"₌":{"ha":927,"x_min":267,"x_max":711,"o":"m 267 -75 l 267 35 l 711 35 l 711 -75 l 267 -75 m 267 129 l 267 238 l 711 238 l 711 129 l 267 129 z "},"₍":{"ha":927,"x_min":190,"x_max":735,"o":"m 735 596 l 735 486 l 489 486 l 315 326 l 315 214 l 489 54 l 735 54 l 735 -56 l 435 -56 l 190 171 l 190 370 l 435 596 l 735 596 z "},"₎":{"ha":927,"x_min":190,"x_max":735,"o":"m 190 486 l 190 596 l 489 596 l 735 370 l 735 171 l 489 -56 l 190 -56 l 190 54 l 435 54 l 610 214 l 610 326 l 435 486 l 190 486 z "},"⁄":{"ha":259,"x_min":-292,"x_max":538,"o":"m 538 1042 q 179 540 425 882 q -208 0 -128 111 l -292 0 l 453 1042 l 538 1042 z "}}}
